<svg width="67" height="16" viewBox="0 0 67 16" fill="none" xmlns="http://www.w3.org/2000/svg">
<path d="M0.788887 12V3.26953H2.78487L5.54142 7.68906C5.68158 7.91586 5.82439 8.16153 5.96986 8.42606C6.11533 8.6906 6.26311 8.98495 6.41318 9.30914C6.56326 9.63332 6.71357 9.99866 6.86412 10.4051H6.6806C6.65388 10.0798 6.62902 9.73421 6.60601 9.3685C6.583 9.00279 6.56427 8.65148 6.54982 8.31456C6.53537 7.97764 6.52814 7.69297 6.52814 7.46054V3.26953H8.35655V12H6.35517L3.85245 7.99319C3.66784 7.691 3.49701 7.39885 3.33998 7.11674C3.18295 6.83463 3.01965 6.52183 2.85008 6.17835C2.68051 5.83488 2.47815 5.42548 2.243 4.95017H2.47022C2.49608 5.37111 2.52052 5.77572 2.54353 6.164C2.56653 6.55228 2.58503 6.90318 2.59902 7.2167C2.613 7.53022 2.61999 7.78725 2.61999 7.9878V12H0.788887ZM10.5354 12V3.26953H16.381V4.75386H12.3258V6.86108H16.0717V8.3201H12.3258V10.5157H16.3926V12H10.5354ZM22.2934 12.1172C21.4781 12.1172 20.7622 11.9361 20.1456 11.5738C19.5291 11.2116 19.0484 10.6961 18.7034 10.0272C18.3583 9.35834 18.1858 8.56492 18.1858 7.64695C18.1858 6.70219 18.3652 5.89484 18.7239 5.22492C19.0826 4.555 19.569 4.04209 20.183 3.68619C20.797 3.33029 21.4875 3.15234 22.2547 3.15234C22.7452 3.15234 23.2022 3.22334 23.6258 3.36533C24.0494 3.50733 24.4268 3.70949 24.758 3.97184C25.0892 4.23418 25.3592 4.54438 25.5682 4.90243C25.7772 5.26047 25.9123 5.65465 25.9736 6.08497H24.1543C24.094 5.87544 24.0081 5.68783 23.8966 5.52213C23.785 5.35643 23.6499 5.21513 23.4913 5.09821C23.3326 4.9813 23.1523 4.89246 22.9504 4.83168C22.7485 4.7709 22.5259 4.74051 22.2827 4.74051C21.8343 4.74051 21.438 4.8523 21.0939 5.0759C20.7498 5.29949 20.4815 5.62645 20.2892 6.0568C20.0969 6.48715 20.0008 7.01087 20.0008 7.62797C20.0008 8.24569 20.0958 8.77033 20.2858 9.20189C20.4759 9.63345 20.7432 9.96253 21.0877 10.1891C21.4323 10.4157 21.8384 10.529 22.3061 10.529C22.7265 10.529 23.0879 10.4525 23.3901 10.2994C23.6923 10.1463 23.9237 9.92908 24.0841 9.64768C24.2446 9.36628 24.3248 9.03453 24.3248 8.65243L24.6999 8.70739H22.4302V7.34869H26.0602V8.43983C26.0602 9.20257 25.8985 9.85853 25.5751 10.4077C25.2518 10.9569 24.8068 11.3791 24.2401 11.6743C23.6735 11.9696 23.0246 12.1172 22.2934 12.1172ZM27.1521 12L30.1385 3.26953H32.4781L35.5403 12H33.5521L32.153 7.78859C31.9828 7.24466 31.8114 6.64906 31.6388 6.00179C31.4663 5.35451 31.2842 4.64923 31.0926 3.88594H31.4807C31.2951 4.65282 31.1214 5.36169 30.9597 6.01257C30.7981 6.66344 30.6369 7.25544 30.4763 7.78859L29.1268 12H27.1521ZM29.018 9.97386V8.57086H33.6744V9.97386H29.018ZM35.8003 4.75386V3.26953H42.9296V4.75386H40.2628V12H38.4724V4.75386H35.8003ZM46.5481 3.26953V12H44.7576V3.26953H46.5481ZM51.2826 12L48.2236 3.26953H50.2119L51.6082 7.48095C51.7749 8.01409 51.9442 8.5999 52.1161 9.23839C52.288 9.87688 52.4689 10.5742 52.6587 11.3303H52.2742C52.4598 10.5652 52.635 9.86565 52.7997 9.23165C52.9644 8.59766 53.127 8.01409 53.2876 7.48095L54.6371 3.26953H56.6118L53.6196 12H51.2826ZM56.8334 12L59.8198 3.26953H62.1594L65.2216 12H63.2333L61.8342 7.78859C61.664 7.24466 61.4926 6.64906 61.3201 6.00179C61.1475 5.35451 60.9654 4.64923 60.7738 3.88594H61.1619C60.9763 4.65282 60.8027 5.36169 60.641 6.01257C60.4793 6.66344 60.3182 7.25544 60.1575 7.78859L58.808 12H56.8334ZM58.6992 9.97386V8.57086H63.3557V9.97386H58.6992Z" fill="#191C1D"/>
</svg>
