<svg width="368" height="142" viewBox="0 0 368 142" fill="none" xmlns="http://www.w3.org/2000/svg">
<rect x="5" y="1" width="358" height="132" rx="8" fill="#002046"/>
<g filter="url(#filter0_dd_6_88)">
<rect x="5" y="1" width="358" height="132" rx="8" fill="white" fill-opacity="0.01" shape-rendering="crispEdges"/>
</g>
<path d="M37.4588 31.3281H35.5923C35.5582 31.0866 35.4886 30.8722 35.3835 30.6847C35.2784 30.4943 35.1435 30.3324 34.9787 30.1989C34.8139 30.0653 34.6236 29.9631 34.4077 29.892C34.1946 29.821 33.9631 29.7855 33.7131 29.7855C33.2614 29.7855 32.8679 29.8977 32.5327 30.1222C32.1974 30.3437 31.9375 30.6676 31.7528 31.0938C31.5682 31.517 31.4759 32.0312 31.4759 32.6364C31.4759 33.2585 31.5682 33.7812 31.7528 34.2045C31.9403 34.6278 32.2017 34.9474 32.5369 35.1634C32.8722 35.3793 33.2599 35.4872 33.7003 35.4872C33.9474 35.4872 34.1761 35.4545 34.3864 35.3892C34.5994 35.3239 34.7884 35.2287 34.9531 35.1037C35.1179 34.9759 35.2543 34.821 35.3622 34.6392C35.473 34.4574 35.5497 34.25 35.5923 34.017L37.4588 34.0256C37.4105 34.4261 37.2898 34.8125 37.0966 35.1847C36.9063 35.554 36.6491 35.8849 36.3253 36.1776C36.0043 36.4673 35.6207 36.6974 35.1747 36.8679C34.7315 37.0355 34.2301 37.1193 33.6705 37.1193C32.892 37.1193 32.196 36.9432 31.5824 36.5909C30.9716 36.2386 30.4886 35.7287 30.1335 35.0611C29.7812 34.3935 29.6051 33.5852 29.6051 32.6364C29.6051 31.6847 29.7841 30.875 30.142 30.2074C30.5 29.5398 30.9858 29.0312 31.5994 28.6818C32.2131 28.3295 32.9034 28.1534 33.6705 28.1534C34.1761 28.1534 34.6449 28.2244 35.0767 28.3665C35.5114 28.5085 35.8963 28.7159 36.2315 28.9886C36.5668 29.2585 36.8395 29.5895 37.0497 29.9815C37.2628 30.3736 37.3991 30.8224 37.4588 31.3281ZM40.7222 37H38.7449L41.7577 28.2727H44.1355L47.144 37H45.1668L42.9807 30.267H42.9125L40.7222 37ZM40.5986 33.5696H45.269V35.0099H40.5986V33.5696ZM42.2946 27.429L43.198 25.4901H44.877L43.5773 27.429H42.2946ZM48.7945 37V28.2727H50.6396V35.4787H54.3811V37H48.7945ZM63.5635 31.3281H61.697C61.6629 31.0866 61.5933 30.8722 61.4882 30.6847C61.3831 30.4943 61.2482 30.3324 61.0834 30.1989C60.9186 30.0653 60.7283 29.9631 60.5124 29.892C60.2993 29.821 60.0678 29.7855 59.8178 29.7855C59.3661 29.7855 58.9726 29.8977 58.6374 30.1222C58.3021 30.3437 58.0422 30.6676 57.8575 31.0938C57.6729 31.517 57.5805 32.0312 57.5805 32.6364C57.5805 33.2585 57.6729 33.7812 57.8575 34.2045C58.045 34.6278 58.3064 34.9474 58.6416 35.1634C58.9768 35.3793 59.3646 35.4872 59.805 35.4872C60.0521 35.4872 60.2808 35.4545 60.4911 35.3892C60.7041 35.3239 60.893 35.2287 61.0578 35.1037C61.2226 34.9759 61.3589 34.821 61.4669 34.6392C61.5777 34.4574 61.6544 34.25 61.697 34.017L63.5635 34.0256C63.5152 34.4261 63.3945 34.8125 63.2013 35.1847C63.0109 35.554 62.7538 35.8849 62.43 36.1776C62.1089 36.4673 61.7254 36.6974 61.2794 36.8679C60.8362 37.0355 60.3348 37.1193 59.7751 37.1193C58.9967 37.1193 58.3007 36.9432 57.6871 36.5909C57.0763 36.2386 56.5933 35.7287 56.2382 35.0611C55.8859 34.3935 55.7098 33.5852 55.7098 32.6364C55.7098 31.6847 55.8888 30.875 56.2467 30.2074C56.6047 29.5398 57.0905 29.0312 57.7041 28.6818C58.3178 28.3295 59.0081 28.1534 59.7751 28.1534C60.2808 28.1534 60.7496 28.2244 61.1814 28.3665C61.6161 28.5085 62.001 28.7159 62.3362 28.9886C62.6714 29.2585 62.9442 29.5895 63.1544 29.9815C63.3675 30.3736 63.5038 30.8224 63.5635 31.3281ZM70.8773 28.2727H72.7224V33.9403C72.7224 34.5767 72.5705 35.1335 72.2665 35.6108C71.9653 36.0881 71.5435 36.4602 71.0009 36.7273C70.4582 36.9915 69.8261 37.1236 69.1045 37.1236C68.3801 37.1236 67.7466 36.9915 67.204 36.7273C66.6614 36.4602 66.2395 36.0881 65.9384 35.6108C65.6372 35.1335 65.4866 34.5767 65.4866 33.9403V28.2727H67.3318V33.7827C67.3318 34.1151 67.4043 34.4105 67.5491 34.669C67.6969 34.9276 67.9043 35.1307 68.1713 35.2784C68.4384 35.4261 68.7494 35.5 69.1045 35.5C69.4625 35.5 69.7736 35.4261 70.0378 35.2784C70.3048 35.1307 70.5108 34.9276 70.6557 34.669C70.8034 34.4105 70.8773 34.1151 70.8773 33.7827V28.2727ZM74.8406 37V28.2727H76.6857V35.4787H80.4272V37H74.8406ZM89.9292 32.6364C89.9292 33.5881 89.7488 34.3977 89.388 35.0653C89.03 35.733 88.5414 36.2429 87.9221 36.5952C87.3056 36.9446 86.6124 37.1193 85.8425 37.1193C85.067 37.1193 84.371 36.9432 83.7545 36.5909C83.138 36.2386 82.6508 35.7287 82.2928 35.0611C81.9349 34.3935 81.7559 33.5852 81.7559 32.6364C81.7559 31.6847 81.9349 30.875 82.2928 30.2074C82.6508 29.5398 83.138 29.0312 83.7545 28.6818C84.371 28.3295 85.067 28.1534 85.8425 28.1534C86.6124 28.1534 87.3056 28.3295 87.9221 28.6818C88.5414 29.0312 89.03 29.5398 89.388 30.2074C89.7488 30.875 89.9292 31.6847 89.9292 32.6364ZM88.0585 32.6364C88.0585 32.0199 87.9661 31.5 87.7815 31.0767C87.5996 30.6534 87.3425 30.3324 87.0102 30.1136C86.6778 29.8949 86.2886 29.7855 85.8425 29.7855C85.3965 29.7855 85.0073 29.8949 84.6749 30.1136C84.3425 30.3324 84.084 30.6534 83.8994 31.0767C83.7175 31.5 83.6266 32.0199 83.6266 32.6364C83.6266 33.2528 83.7175 33.7727 83.8994 34.196C84.084 34.6193 84.3425 34.9403 84.6749 35.1591C85.0073 35.3778 85.3965 35.4872 85.8425 35.4872C86.2886 35.4872 86.6778 35.3778 87.0102 35.1591C87.3425 34.9403 87.5996 34.6193 87.7815 34.196C87.9661 33.7727 88.0585 33.2528 88.0585 32.6364ZM98.3671 37H95.2734V28.2727H98.3927C99.2705 28.2727 100.026 28.4474 100.66 28.7969C101.293 29.1435 101.78 29.642 102.121 30.2926C102.465 30.9432 102.637 31.7216 102.637 32.6278C102.637 33.5369 102.465 34.3182 102.121 34.9716C101.78 35.625 101.29 36.1264 100.651 36.4759C100.015 36.8253 99.2535 37 98.3671 37ZM97.1185 35.419H98.2904C98.8359 35.419 99.2947 35.3224 99.6668 35.1293C100.042 34.9332 100.323 34.6307 100.511 34.2216C100.701 33.8097 100.796 33.2784 100.796 32.6278C100.796 31.983 100.701 31.456 100.511 31.0469C100.323 30.6378 100.043 30.3366 99.6711 30.1435C99.2989 29.9503 98.8401 29.8537 98.2947 29.8537H97.1185V35.419ZM106.449 28.2727V37H104.604V28.2727H106.449ZM115.867 28.2727V37H114.273L110.476 31.5071H110.412V37H108.567V28.2727H110.186L113.953 33.7614H114.03V28.2727H115.867ZM119.496 37H117.518L120.531 28.2727H122.909L125.917 37H123.94L121.754 30.267H121.686L119.496 37ZM119.372 33.5696H124.042V35.0099H119.372V33.5696ZM122.577 27.4886L121.72 26.4489L120.863 27.4886H119.317V27.429L121.042 25.554H122.393L124.123 27.429V27.4886H122.577ZM127.568 28.2727H129.843L132.247 34.1364H132.349L134.753 28.2727H137.028V37H135.238V31.3196H135.166L132.907 36.9574H131.689L129.43 31.2983H129.358V37H127.568V28.2727ZM140.994 28.2727V37H139.148V28.2727H140.994ZM150.812 31.3281H148.945C148.911 31.0866 148.842 30.8722 148.737 30.6847C148.632 30.4943 148.497 30.3324 148.332 30.1989C148.167 30.0653 147.977 29.9631 147.761 29.892C147.548 29.821 147.316 29.7855 147.066 29.7855C146.614 29.7855 146.221 29.8977 145.886 30.1222C145.551 30.3437 145.291 30.6676 145.106 31.0938C144.921 31.517 144.829 32.0312 144.829 32.6364C144.829 33.2585 144.921 33.7812 145.106 34.2045C145.293 34.6278 145.555 34.9474 145.89 35.1634C146.225 35.3793 146.613 35.4872 147.053 35.4872C147.301 35.4872 147.529 35.4545 147.739 35.3892C147.953 35.3239 148.141 35.2287 148.306 35.1037C148.471 34.9759 148.607 34.821 148.715 34.6392C148.826 34.4574 148.903 34.25 148.945 34.017L150.812 34.0256C150.764 34.4261 150.643 34.8125 150.45 35.1847C150.259 35.554 150.002 35.8849 149.678 36.1776C149.357 36.4673 148.974 36.6974 148.528 36.8679C148.085 37.0355 147.583 37.1193 147.024 37.1193C146.245 37.1193 145.549 36.9432 144.936 36.5909C144.325 36.2386 143.842 35.7287 143.487 35.0611C143.134 34.3935 142.958 33.5852 142.958 32.6364C142.958 31.6847 143.137 30.875 143.495 30.2074C143.853 29.5398 144.339 29.0312 144.953 28.6818C145.566 28.3295 146.257 28.1534 147.024 28.1534C147.529 28.1534 147.998 28.2244 148.43 28.3665C148.864 28.5085 149.249 28.7159 149.585 28.9886C149.92 29.2585 150.193 29.5895 150.403 29.9815C150.616 30.3736 150.752 30.8224 150.812 31.3281ZM160.755 32.6364C160.755 33.5881 160.575 34.3977 160.214 35.0653C159.856 35.733 159.367 36.2429 158.748 36.5952C158.131 36.9446 157.438 37.1193 156.668 37.1193C155.893 37.1193 155.197 36.9432 154.58 36.5909C153.964 36.2386 153.477 35.7287 153.119 35.0611C152.761 34.3935 152.582 33.5852 152.582 32.6364C152.582 31.6847 152.761 30.875 153.119 30.2074C153.477 29.5398 153.964 29.0312 154.58 28.6818C155.197 28.3295 155.893 28.1534 156.668 28.1534C157.438 28.1534 158.131 28.3295 158.748 28.6818C159.367 29.0312 159.856 29.5398 160.214 30.2074C160.575 30.875 160.755 31.6847 160.755 32.6364ZM158.884 32.6364C158.884 32.0199 158.792 31.5 158.607 31.0767C158.425 30.6534 158.168 30.3324 157.836 30.1136C157.504 29.8949 157.114 29.7855 156.668 29.7855C156.222 29.7855 155.833 29.8949 155.501 30.1136C155.168 30.3324 154.91 30.6534 154.725 31.0767C154.543 31.5 154.452 32.0199 154.452 32.6364C154.452 33.2528 154.543 33.7727 154.725 34.196C154.91 34.6193 155.168 34.9403 155.501 35.1591C155.833 35.3778 156.222 35.4872 156.668 35.4872C157.114 35.4872 157.504 35.3778 157.836 35.1591C158.168 34.9403 158.425 34.6193 158.607 34.196C158.792 33.7727 158.884 33.2528 158.884 32.6364Z" fill="#D6E3FF"/>
<path d="M39.208 77.48C37.704 77.48 36.3493 77.128 35.144 76.424C33.9493 75.7093 33 74.7227 32.296 73.464C31.592 72.2053 31.24 70.76 31.24 69.128V62.12C31.24 60.3707 31.5867 58.8507 32.28 57.56C32.984 56.2693 33.9653 55.272 35.224 54.568C36.4933 53.864 37.9653 53.512 39.64 53.512C40.8027 53.512 41.9067 53.7093 42.952 54.104C43.9973 54.488 44.9253 55.1067 45.736 55.96L42.952 58.664C42.5467 58.184 42.0507 57.8053 41.464 57.528C40.888 57.2507 40.28 57.112 39.64 57.112C38.744 57.112 37.96 57.3253 37.288 57.752C36.616 58.168 36.0933 58.7173 35.72 59.4C35.3573 60.0827 35.176 60.8133 35.176 61.592V65.416L34.472 64.648C35.1333 63.88 35.928 63.2827 36.856 62.856C37.784 62.4187 38.7547 62.2 39.768 62.2C41.2187 62.2 42.4987 62.5307 43.608 63.192C44.7173 63.8427 45.592 64.7387 46.232 65.88C46.872 67.0107 47.192 68.3013 47.192 69.752C47.192 71.192 46.824 72.4987 46.088 73.672C45.3627 74.8347 44.3973 75.7627 43.192 76.456C41.9867 77.1387 40.6587 77.48 39.208 77.48ZM39.208 73.784C39.9547 73.784 40.6373 73.608 41.256 73.256C41.8747 72.8933 42.3653 72.408 42.728 71.8C43.1013 71.1813 43.288 70.4987 43.288 69.752C43.288 69.0053 43.1067 68.3227 42.744 67.704C42.3813 67.0853 41.8907 66.5947 41.272 66.232C40.664 65.8587 39.9867 65.672 39.24 65.672C38.4933 65.672 37.8107 65.8587 37.192 66.232C36.5733 66.5947 36.0827 67.0853 35.72 67.704C35.3573 68.3227 35.176 69.0053 35.176 69.752C35.176 70.4773 35.352 71.1493 35.704 71.768C36.0667 72.376 36.552 72.8667 37.16 73.24C37.7787 73.6027 38.4613 73.784 39.208 73.784ZM61.0732 77.48C59.8252 77.48 58.7692 77.2453 57.9052 76.776C57.0412 76.296 56.3852 75.6613 55.9372 74.872C55.4999 74.0827 55.2812 73.2133 55.2812 72.264C55.2812 71.432 55.4199 70.6853 55.6972 70.024C55.9746 69.352 56.4012 68.776 56.9772 68.296C57.5532 67.8053 58.2999 67.4053 59.2172 67.096C59.9106 66.872 60.7212 66.6693 61.6492 66.488C62.5879 66.3067 63.6013 66.1413 64.6892 65.992C65.7879 65.832 66.9346 65.6613 68.1292 65.48L66.7533 66.264C66.7639 65.0693 66.4972 64.1893 65.9532 63.624C65.4092 63.0587 64.4919 62.776 63.2013 62.776C62.4226 62.776 61.6706 62.9573 60.9452 63.32C60.2199 63.6827 59.7132 64.3067 59.4252 65.192L55.9052 64.088C56.3319 62.6267 57.1426 61.4533 58.3372 60.568C59.5426 59.6827 61.1639 59.24 63.2013 59.24C64.7373 59.24 66.0866 59.4907 67.2493 59.992C68.4226 60.4933 69.2919 61.3147 69.8573 62.456C70.1666 63.064 70.3533 63.688 70.4172 64.328C70.4813 64.9573 70.5133 65.6453 70.5133 66.392V77H67.1372V73.256L67.6973 73.864C66.9186 75.112 66.0066 76.0293 64.9613 76.616C63.9266 77.192 62.6306 77.48 61.0732 77.48ZM61.8412 74.408C62.7159 74.408 63.4626 74.2533 64.0813 73.944C64.6999 73.6347 65.1906 73.256 65.5533 72.808C65.9266 72.36 66.1772 71.9387 66.3053 71.544C66.5079 71.0533 66.6199 70.4933 66.6412 69.864C66.6732 69.224 66.6892 68.7067 66.6892 68.312L67.8733 68.664C66.7106 68.8453 65.7132 69.0053 64.8812 69.144C64.0492 69.2827 63.3346 69.416 62.7372 69.544C62.1399 69.6613 61.6119 69.7947 61.1532 69.944C60.7052 70.104 60.3266 70.2907 60.0172 70.504C59.7079 70.7173 59.4679 70.9627 59.2972 71.24C59.1372 71.5173 59.0572 71.8427 59.0572 72.216C59.0572 72.6427 59.1639 73.0213 59.3772 73.352C59.5906 73.672 59.8999 73.928 60.3052 74.12C60.7212 74.312 61.2332 74.408 61.8412 74.408ZM85.9908 77V68.68C85.9908 68.136 85.9534 67.5333 85.8788 66.872C85.8041 66.2107 85.6281 65.576 85.3508 64.968C85.0841 64.3493 84.6788 63.8427 84.1348 63.448C83.6014 63.0533 82.8761 62.856 81.9588 62.856C81.4681 62.856 80.9828 62.936 80.5028 63.096C80.0228 63.256 79.5854 63.5333 79.1908 63.928C78.8068 64.312 78.4974 64.8453 78.2628 65.528C78.0281 66.2 77.9108 67.064 77.9108 68.12L75.6228 67.144C75.6228 65.672 75.9054 64.3387 76.4708 63.144C77.0468 61.9493 77.8894 61 78.9988 60.296C80.1081 59.5813 81.4734 59.224 83.0948 59.224C84.3748 59.224 85.4308 59.4373 86.2628 59.864C87.0948 60.2907 87.7561 60.8347 88.2468 61.496C88.7374 62.1573 89.1001 62.8613 89.3348 63.608C89.5694 64.3547 89.7188 65.064 89.7828 65.736C89.8574 66.3973 89.8948 66.936 89.8948 67.352V77H85.9908ZM74.0068 77V59.72H77.4468V65.08H77.9108V77H74.0068ZM100.781 77.48C99.0527 77.48 97.5434 77.0907 96.2527 76.312C94.9621 75.5333 93.9594 74.4613 93.2447 73.096C92.5407 71.72 92.1887 70.1413 92.1887 68.36C92.1887 66.5467 92.5514 64.9573 93.2767 63.592C94.0021 62.2267 95.0101 61.16 96.3007 60.392C97.5914 59.624 99.0847 59.24 100.781 59.24C102.519 59.24 104.034 59.6293 105.325 60.408C106.615 61.1867 107.618 62.264 108.333 63.64C109.047 65.0053 109.405 66.5787 109.405 68.36C109.405 70.152 109.042 71.736 108.317 73.112C107.602 74.4773 106.599 75.5493 105.309 76.328C104.018 77.096 102.509 77.48 100.781 77.48ZM100.781 73.864C102.317 73.864 103.458 73.352 104.205 72.328C104.951 71.304 105.325 69.9813 105.325 68.36C105.325 66.6853 104.946 65.352 104.189 64.36C103.431 63.3573 102.295 62.856 100.781 62.856C99.7461 62.856 98.8927 63.0907 98.2207 63.56C97.5594 64.0187 97.0687 64.664 96.7487 65.496C96.4287 66.3173 96.2687 67.272 96.2687 68.36C96.2687 70.0347 96.6474 71.3733 97.4047 72.376C98.1727 73.368 99.2981 73.864 100.781 73.864ZM118.556 77.48C116.422 77.48 114.689 77 113.356 76.04C112.022 75.08 111.212 73.7307 110.924 71.992L114.86 71.384C115.062 72.2373 115.51 72.9093 116.204 73.4C116.897 73.8907 117.772 74.136 118.828 74.136C119.756 74.136 120.47 73.9547 120.972 73.592C121.484 73.2187 121.74 72.712 121.74 72.072C121.74 71.6773 121.644 71.3627 121.452 71.128C121.27 70.8827 120.865 70.648 120.236 70.424C119.606 70.2 118.641 69.9173 117.34 69.576C115.889 69.192 114.737 68.7813 113.884 68.344C113.03 67.896 112.417 67.368 112.044 66.76C111.67 66.152 111.484 65.416 111.484 64.552C111.484 63.4747 111.766 62.536 112.332 61.736C112.897 60.936 113.686 60.3227 114.7 59.896C115.713 59.4587 116.908 59.24 118.284 59.24C119.628 59.24 120.817 59.448 121.852 59.864C122.897 60.28 123.74 60.872 124.38 61.64C125.02 62.408 125.414 63.3093 125.564 64.344L121.628 65.048C121.532 64.312 121.196 63.7307 120.62 63.304C120.054 62.8773 119.297 62.6373 118.348 62.584C117.441 62.5307 116.71 62.6693 116.156 63C115.601 63.32 115.324 63.7733 115.324 64.36C115.324 64.6907 115.436 64.9733 115.66 65.208C115.884 65.4427 116.332 65.6773 117.004 65.912C117.686 66.1467 118.7 66.4347 120.044 66.776C121.42 67.128 122.518 67.5333 123.34 67.992C124.172 68.44 124.769 68.9787 125.132 69.608C125.505 70.2373 125.692 71 125.692 71.896C125.692 73.6347 125.057 75 123.788 75.992C122.529 76.984 120.785 77.48 118.556 77.48ZM128.236 81.08L128.46 79.416C128.951 79.4587 129.34 79.3733 129.628 79.16C129.916 78.9573 130.108 78.664 130.204 78.28C130.311 77.9067 130.338 77.48 130.284 77H128.236V72.888H132.188V77.16C132.188 78.5573 131.858 79.6133 131.196 80.328C130.535 81.0427 129.548 81.2933 128.236 81.08ZM151.689 77.48C150.057 77.48 148.617 77.1333 147.369 76.44C146.121 75.736 145.145 74.76 144.441 73.512C143.748 72.264 143.401 70.824 143.401 69.192V61.768C143.401 60.136 143.748 58.696 144.441 57.448C145.145 56.2 146.121 55.2293 147.369 54.536C148.617 53.832 150.057 53.48 151.689 53.48C153.321 53.48 154.756 53.832 155.993 54.536C157.241 55.2293 158.217 56.2 158.921 57.448C159.625 58.696 159.977 60.136 159.977 61.768V69.192C159.977 70.824 159.625 72.264 158.921 73.512C158.217 74.76 157.241 75.736 155.993 76.44C154.756 77.1333 153.321 77.48 151.689 77.48ZM151.689 73.816C152.5 73.816 153.236 73.624 153.897 73.24C154.559 72.8453 155.081 72.3227 155.465 71.672C155.849 71.0107 156.041 70.2747 156.041 69.464V61.48C156.041 60.6587 155.849 59.9227 155.465 59.272C155.081 58.6107 154.559 58.088 153.897 57.704C153.236 57.3093 152.5 57.112 151.689 57.112C150.879 57.112 150.143 57.3093 149.481 57.704C148.82 58.088 148.297 58.6107 147.913 59.272C147.529 59.9227 147.337 60.6587 147.337 61.48V69.464C147.337 70.2747 147.529 71.0107 147.913 71.672C148.297 72.3227 148.82 72.8453 149.481 73.24C150.143 73.624 150.879 73.816 151.689 73.816ZM190.342 77V66.504C190.342 65.32 190.049 64.3973 189.462 63.736C188.875 63.064 188.081 62.728 187.078 62.728C186.459 62.728 185.905 62.872 185.414 63.16C184.923 63.4373 184.534 63.8533 184.246 64.408C183.958 64.952 183.814 65.6027 183.814 66.36L182.102 65.352C182.091 64.1573 182.358 63.1067 182.902 62.2C183.457 61.2827 184.203 60.568 185.142 60.056C186.081 59.544 187.126 59.288 188.278 59.288C190.187 59.288 191.649 59.864 192.662 61.016C193.686 62.1573 194.198 63.6613 194.198 65.528V77H190.342ZM169.558 77V59.72H172.966V65.08H173.446V77H169.558ZM179.974 77V66.552C179.974 65.3467 179.681 64.408 179.094 63.736C178.507 63.064 177.707 62.728 176.694 62.728C175.713 62.728 174.923 63.064 174.326 63.736C173.739 64.408 173.446 65.2827 173.446 66.36L171.718 65.208C171.718 64.088 171.995 63.08 172.55 62.184C173.105 61.288 173.851 60.584 174.79 60.072C175.739 59.5493 176.801 59.288 177.974 59.288C179.265 59.288 180.342 59.5653 181.206 60.12C182.081 60.664 182.731 61.4107 183.158 62.36C183.595 63.2987 183.814 64.36 183.814 65.544V77H179.974ZM205.306 77.48C203.557 77.48 202.021 77.1013 200.698 76.344C199.375 75.5867 198.341 74.536 197.594 73.192C196.858 71.848 196.49 70.3013 196.49 68.552C196.49 66.664 196.853 65.0267 197.578 63.64C198.303 62.2427 199.311 61.16 200.602 60.392C201.893 59.624 203.386 59.24 205.082 59.24C206.874 59.24 208.394 59.6613 209.642 60.504C210.901 61.336 211.834 62.5147 212.442 64.04C213.05 65.5653 213.279 67.3627 213.13 69.432H209.306V68.024C209.295 66.1467 208.965 64.776 208.314 63.912C207.663 63.048 206.639 62.616 205.242 62.616C203.663 62.616 202.49 63.1067 201.722 64.088C200.954 65.0587 200.57 66.4827 200.57 68.36C200.57 70.1093 200.954 71.464 201.722 72.424C202.49 73.384 203.61 73.864 205.082 73.864C206.031 73.864 206.847 73.656 207.53 73.24C208.223 72.8133 208.757 72.2 209.13 71.4L212.938 72.552C212.277 74.1093 211.253 75.32 209.866 76.184C208.49 77.048 206.97 77.48 205.306 77.48ZM199.354 69.432V66.52H211.242V69.432H199.354ZM222.732 77.48C220.599 77.48 218.865 77 217.532 76.04C216.199 75.08 215.388 73.7307 215.1 71.992L219.036 71.384C219.239 72.2373 219.687 72.9093 220.38 73.4C221.073 73.8907 221.948 74.136 223.004 74.136C223.932 74.136 224.647 73.9547 225.148 73.592C225.66 73.2187 225.916 72.712 225.916 72.072C225.916 71.6773 225.82 71.3627 225.628 71.128C225.447 70.8827 225.041 70.648 224.412 70.424C223.783 70.2 222.817 69.9173 221.516 69.576C220.065 69.192 218.913 68.7813 218.06 68.344C217.207 67.896 216.593 67.368 216.22 66.76C215.847 66.152 215.66 65.416 215.66 64.552C215.66 63.4747 215.943 62.536 216.508 61.736C217.073 60.936 217.863 60.3227 218.876 59.896C219.889 59.4587 221.084 59.24 222.46 59.24C223.804 59.24 224.993 59.448 226.028 59.864C227.073 60.28 227.916 60.872 228.556 61.64C229.196 62.408 229.591 63.3093 229.74 64.344L225.804 65.048C225.708 64.312 225.372 63.7307 224.796 63.304C224.231 62.8773 223.473 62.6373 222.524 62.584C221.617 62.5307 220.887 62.6693 220.332 63C219.777 63.32 219.5 63.7733 219.5 64.36C219.5 64.6907 219.612 64.9733 219.836 65.208C220.06 65.4427 220.508 65.6773 221.18 65.912C221.863 66.1467 222.876 66.4347 224.22 66.776C225.596 67.128 226.695 67.5333 227.516 67.992C228.348 68.44 228.945 68.9787 229.308 69.608C229.681 70.2373 229.868 71 229.868 71.896C229.868 73.6347 229.233 75 227.964 75.992C226.705 76.984 224.961 77.48 222.732 77.48ZM240.588 77.48C238.839 77.48 237.303 77.1013 235.98 76.344C234.658 75.5867 233.623 74.536 232.876 73.192C232.14 71.848 231.772 70.3013 231.772 68.552C231.772 66.664 232.135 65.0267 232.86 63.64C233.586 62.2427 234.594 61.16 235.884 60.392C237.175 59.624 238.668 59.24 240.364 59.24C242.156 59.24 243.676 59.6613 244.924 60.504C246.183 61.336 247.116 62.5147 247.724 64.04C248.332 65.5653 248.562 67.3627 248.412 69.432H244.588V68.024C244.578 66.1467 244.247 64.776 243.596 63.912C242.946 63.048 241.922 62.616 240.524 62.616C238.946 62.616 237.772 63.1067 237.004 64.088C236.236 65.0587 235.852 66.4827 235.852 68.36C235.852 70.1093 236.236 71.464 237.004 72.424C237.772 73.384 238.892 73.864 240.364 73.864C241.314 73.864 242.13 73.656 242.812 73.24C243.506 72.8133 244.039 72.2 244.412 71.4L248.22 72.552C247.559 74.1093 246.535 75.32 245.148 76.184C243.772 77.048 242.252 77.48 240.588 77.48ZM234.636 69.432V66.52H246.524V69.432H234.636ZM258.014 77.48C255.881 77.48 254.148 77 252.814 76.04C251.481 75.08 250.67 73.7307 250.382 71.992L254.318 71.384C254.521 72.2373 254.969 72.9093 255.662 73.4C256.356 73.8907 257.23 74.136 258.286 74.136C259.214 74.136 259.929 73.9547 260.43 73.592C260.942 73.2187 261.198 72.712 261.198 72.072C261.198 71.6773 261.102 71.3627 260.91 71.128C260.729 70.8827 260.324 70.648 259.694 70.424C259.065 70.2 258.1 69.9173 256.798 69.576C255.348 69.192 254.196 68.7813 253.342 68.344C252.489 67.896 251.876 67.368 251.502 66.76C251.129 66.152 250.942 65.416 250.942 64.552C250.942 63.4747 251.225 62.536 251.79 61.736C252.356 60.936 253.145 60.3227 254.158 59.896C255.172 59.4587 256.366 59.24 257.742 59.24C259.086 59.24 260.276 59.448 261.31 59.864C262.356 60.28 263.198 60.872 263.838 61.64C264.478 62.408 264.873 63.3093 265.022 64.344L261.086 65.048C260.99 64.312 260.654 63.7307 260.078 63.304C259.513 62.8773 258.756 62.6373 257.806 62.584C256.9 62.5307 256.169 62.6693 255.614 63C255.06 63.32 254.782 63.7733 254.782 64.36C254.782 64.6907 254.894 64.9733 255.118 65.208C255.342 65.4427 255.79 65.6773 256.462 65.912C257.145 66.1467 258.158 66.4347 259.502 66.776C260.878 67.128 261.977 67.5333 262.798 67.992C263.63 68.44 264.228 68.9787 264.59 69.608C264.964 70.2373 265.15 71 265.15 71.896C265.15 73.6347 264.516 75 263.246 75.992C261.988 76.984 260.244 77.48 258.014 77.48Z" fill="white"/>
<g opacity="0.8">
<path d="M38.3068 93.8182V104H37.1136L31.5653 96.0057H31.4659V104H30.233V93.8182H31.4261L36.9943 101.832H37.0938V93.8182H38.3068ZM43.8166 104.159C43.0808 104.159 42.4461 103.997 41.9125 103.672C41.3822 103.344 40.9728 102.886 40.6845 102.3C40.3994 101.71 40.2569 101.024 40.2569 100.241C40.2569 99.4593 40.3994 98.7699 40.6845 98.1733C40.9728 97.5734 41.3739 97.1061 41.8876 96.7713C42.4047 96.4332 43.0079 96.2642 43.6973 96.2642C44.095 96.2642 44.4877 96.3305 44.8755 96.4631C45.2633 96.5956 45.6163 96.8111 45.9345 97.1094C46.2527 97.4044 46.5062 97.7955 46.6951 98.2827C46.8841 98.7699 46.9785 99.3698 46.9785 100.082V100.58H41.0922V99.5653H45.7853C45.7853 99.1345 45.6992 98.75 45.5268 98.4119C45.3578 98.0739 45.1158 97.8071 44.801 97.6115C44.4894 97.416 44.1215 97.3182 43.6973 97.3182C43.2299 97.3182 42.8256 97.4342 42.4842 97.6662C42.1461 97.8949 41.8859 98.1932 41.7037 98.5611C41.5214 98.929 41.4302 99.3234 41.4302 99.7443V100.42C41.4302 100.997 41.5297 101.486 41.7285 101.887C41.9307 102.285 42.2108 102.588 42.5687 102.797C42.9267 103.002 43.3426 103.105 43.8166 103.105C44.1248 103.105 44.4032 103.062 44.6518 102.976C44.9037 102.886 45.1208 102.754 45.3031 102.578C45.4854 102.399 45.6262 102.177 45.7257 101.912L46.8592 102.23C46.7399 102.615 46.5394 102.953 46.2576 103.244C45.9759 103.533 45.6279 103.758 45.2136 103.92C44.7993 104.08 44.3336 104.159 43.8166 104.159ZM49.9366 99.4062V104H48.7633V96.3636H49.8968V97.5568H49.9963C50.1752 97.169 50.447 96.8575 50.8116 96.6222C51.1762 96.3835 51.6468 96.2642 52.2235 96.2642C52.7406 96.2642 53.193 96.3703 53.5808 96.5824C53.9686 96.7912 54.2702 97.1094 54.4856 97.5369C54.7011 97.9612 54.8088 98.4981 54.8088 99.1477V104H53.6355V99.2273C53.6355 98.6274 53.4797 98.16 53.1681 97.8253C52.8566 97.4872 52.429 97.3182 51.8855 97.3182C51.5109 97.3182 51.1762 97.3994 50.8812 97.5618C50.5895 97.7242 50.3592 97.9612 50.1902 98.2727C50.0211 98.5843 49.9366 98.9621 49.9366 99.4062ZM58.1261 99.4062V104H56.9528V93.8182H58.1261V97.5568H58.2255C58.4045 97.1624 58.6729 96.8492 59.0309 96.6172C59.3922 96.3819 59.8728 96.2642 60.4727 96.2642C60.993 96.2642 61.4487 96.3686 61.8398 96.5774C62.2309 96.7829 62.5342 97.0994 62.7496 97.527C62.9684 97.9512 63.0778 98.4915 63.0778 99.1477V104H61.9045V99.2273C61.9045 98.6207 61.747 98.1518 61.4322 97.8203C61.1206 97.4856 60.6881 97.3182 60.1346 97.3182C59.7501 97.3182 59.4054 97.3994 59.1005 97.5618C58.7989 97.7242 58.5603 97.9612 58.3846 98.2727C58.2122 98.5843 58.1261 98.9621 58.1261 99.4062ZM70.0368 100.878V96.3636H71.21V104H70.0368V102.707H69.9572C69.7782 103.095 69.4998 103.425 69.122 103.697C68.7441 103.965 68.2669 104.099 67.6902 104.099C67.2129 104.099 66.7886 103.995 66.4174 103.786C66.0462 103.574 65.7546 103.256 65.5424 102.832C65.3303 102.404 65.2243 101.866 65.2243 101.216V96.3636H66.3975V101.136C66.3975 101.693 66.5533 102.137 66.8649 102.469C67.1797 102.8 67.5808 102.966 68.068 102.966C68.3597 102.966 68.6563 102.891 68.9579 102.742C69.2628 102.593 69.5181 102.364 69.7235 102.056C69.9324 101.748 70.0368 101.355 70.0368 100.878ZM73.359 104V96.3636H74.4925V97.5568H74.592C74.7511 97.1491 75.0079 96.8326 75.3626 96.6072C75.7172 96.3786 76.1431 96.2642 76.6403 96.2642C77.1441 96.2642 77.5633 96.3786 77.8981 96.6072C78.2362 96.8326 78.4996 97.1491 78.6886 97.5568H78.7681C78.9637 97.1624 79.257 96.8492 79.6481 96.6172C80.0392 96.3819 80.5082 96.2642 81.055 96.2642C81.7378 96.2642 82.2963 96.478 82.7305 96.9055C83.1647 97.3298 83.3817 97.991 83.3817 98.8892V104H82.2085V98.8892C82.2085 98.3258 82.0543 97.9231 81.7461 97.6811C81.4379 97.4392 81.0749 97.3182 80.6573 97.3182C80.1204 97.3182 79.7044 97.4806 79.4094 97.8054C79.1145 98.1269 78.967 98.5346 78.967 99.0284V104H77.7738V98.7699C77.7738 98.3357 77.6329 97.986 77.3512 97.7209C77.0695 97.4524 76.7066 97.3182 76.2624 97.3182C75.9575 97.3182 75.6725 97.3994 75.4073 97.5618C75.1455 97.7242 74.9334 97.9496 74.771 98.2379C74.6119 98.523 74.5323 98.8527 74.5323 99.2273V104H73.359ZM87.7741 104.179C87.2902 104.179 86.8511 104.088 86.4567 103.906C86.0623 103.72 85.7491 103.453 85.517 103.105C85.285 102.754 85.169 102.33 85.169 101.832C85.169 101.395 85.2552 101.04 85.4276 100.768C85.5999 100.493 85.8303 100.278 86.1186 100.122C86.407 99.9664 86.7251 99.8504 87.0732 99.7741C87.4245 99.6946 87.7775 99.6316 88.1321 99.5852C88.5961 99.5256 88.9723 99.4808 89.2607 99.451C89.5523 99.4179 89.7644 99.3632 89.897 99.2869C90.0329 99.2107 90.1009 99.0781 90.1009 98.8892V98.8494C90.1009 98.3589 89.9666 97.9777 89.6982 97.706C89.433 97.4342 89.0303 97.2983 88.4901 97.2983C87.9299 97.2983 87.4908 97.4209 87.1726 97.6662C86.8544 97.9115 86.6307 98.1733 86.5014 98.4517L85.3878 98.054C85.5866 97.59 85.8518 97.2287 86.1832 96.9702C86.518 96.7083 86.8826 96.526 87.277 96.4233C87.6747 96.3172 88.0658 96.2642 88.4503 96.2642C88.6955 96.2642 88.9773 96.294 89.2955 96.3537C89.617 96.41 89.9268 96.5277 90.2251 96.7067C90.5268 96.8857 90.777 97.1558 90.9759 97.517C91.1747 97.8783 91.2741 98.3622 91.2741 98.9688V104H90.1009V102.966H90.0412C89.9616 103.132 89.8291 103.309 89.6435 103.498C89.4579 103.687 89.2109 103.848 88.9027 103.98C88.5945 104.113 88.2183 104.179 87.7741 104.179ZM87.9531 103.125C88.4171 103.125 88.8082 103.034 89.1264 102.852C89.4479 102.669 89.6899 102.434 89.8523 102.146C90.018 101.857 90.1009 101.554 90.1009 101.236V100.162C90.0511 100.222 89.9418 100.276 89.7727 100.326C89.607 100.372 89.4148 100.414 89.196 100.45C88.9806 100.483 88.7701 100.513 88.5646 100.54C88.3625 100.563 88.1984 100.583 88.0724 100.599C87.7675 100.639 87.4825 100.704 87.2173 100.793C86.9555 100.879 86.7434 101.01 86.581 101.186C86.4219 101.358 86.3423 101.594 86.3423 101.892C86.3423 102.3 86.4931 102.608 86.7947 102.817C87.0997 103.022 87.4858 103.125 87.9531 103.125ZM100.455 104.159C99.7395 104.159 99.123 103.99 98.606 103.652C98.089 103.314 97.6912 102.848 97.4128 102.255C97.1344 101.662 96.9952 100.984 96.9952 100.222C96.9952 99.446 97.1377 98.7616 97.4228 98.1683C97.7111 97.5717 98.1122 97.1061 98.6259 96.7713C99.1429 96.4332 99.7462 96.2642 100.436 96.2642C100.972 96.2642 101.456 96.3636 101.887 96.5625C102.318 96.7614 102.671 97.0398 102.946 97.3977C103.221 97.7557 103.392 98.1733 103.458 98.6506H102.285C102.195 98.3026 101.997 97.9943 101.688 97.7259C101.383 97.4541 100.972 97.3182 100.455 97.3182C99.998 97.3182 99.597 97.4375 99.2523 97.6761C98.9109 97.9115 98.6441 98.2446 98.4519 98.6754C98.263 99.103 98.1685 99.6051 98.1685 100.182C98.1685 100.772 98.2613 101.286 98.4469 101.723C98.6358 102.161 98.901 102.5 99.2424 102.742C99.5871 102.984 99.9914 103.105 100.455 103.105C100.76 103.105 101.037 103.052 101.286 102.946C101.534 102.84 101.745 102.688 101.917 102.489C102.089 102.29 102.212 102.051 102.285 101.773H103.458C103.392 102.223 103.228 102.629 102.966 102.991C102.708 103.349 102.365 103.634 101.937 103.846C101.513 104.055 101.019 104.159 100.455 104.159ZM105.173 104V96.3636H106.347V104H105.173ZM105.77 95.0909C105.541 95.0909 105.344 95.013 105.178 94.8572C105.016 94.7015 104.935 94.5142 104.935 94.2955C104.935 94.0767 105.016 93.8894 105.178 93.7337C105.344 93.5779 105.541 93.5 105.77 93.5C105.999 93.5 106.194 93.5779 106.357 93.7337C106.522 93.8894 106.605 94.0767 106.605 94.2955C106.605 94.5142 106.522 94.7015 106.357 94.8572C106.194 95.013 105.999 95.0909 105.77 95.0909ZM108.496 104V96.3636H109.629V97.517H109.709C109.848 97.1392 110.1 96.8326 110.464 96.5973C110.829 96.362 111.24 96.2443 111.697 96.2443C111.784 96.2443 111.891 96.246 112.021 96.2493C112.15 96.2526 112.248 96.2576 112.314 96.2642V97.4574C112.274 97.4474 112.183 97.4325 112.04 97.4126C111.901 97.3894 111.754 97.3778 111.598 97.3778C111.227 97.3778 110.895 97.4557 110.604 97.6115C110.315 97.764 110.087 97.9761 109.918 98.2479C109.752 98.5163 109.669 98.8229 109.669 99.1676V104H108.496ZM116.575 104.159C115.859 104.159 115.242 103.99 114.725 103.652C114.208 103.314 113.81 102.848 113.532 102.255C113.254 101.662 113.114 100.984 113.114 100.222C113.114 99.446 113.257 98.7616 113.542 98.1683C113.83 97.5717 114.231 97.1061 114.745 96.7713C115.262 96.4332 115.865 96.2642 116.555 96.2642C117.092 96.2642 117.576 96.3636 118.006 96.5625C118.437 96.7614 118.79 97.0398 119.065 97.3977C119.34 97.7557 119.511 98.1733 119.577 98.6506H118.404C118.315 98.3026 118.116 97.9943 117.808 97.7259C117.503 97.4541 117.092 97.3182 116.575 97.3182C116.117 97.3182 115.716 97.4375 115.371 97.6761C115.03 97.9115 114.763 98.2446 114.571 98.6754C114.382 99.103 114.288 99.6051 114.288 100.182C114.288 100.772 114.38 101.286 114.566 101.723C114.755 102.161 115.02 102.5 115.362 102.742C115.706 102.984 116.111 103.105 116.575 103.105C116.879 103.105 117.156 103.052 117.405 102.946C117.653 102.84 117.864 102.688 118.036 102.489C118.209 102.29 118.331 102.051 118.404 101.773H119.577C119.511 102.223 119.347 102.629 119.085 102.991C118.827 103.349 118.484 103.634 118.056 103.846C117.632 104.055 117.138 104.159 116.575 104.159ZM126.105 100.878V96.3636H127.278V104H126.105V102.707H126.026C125.847 103.095 125.568 103.425 125.19 103.697C124.813 103.965 124.335 104.099 123.759 104.099C123.281 104.099 122.857 103.995 122.486 103.786C122.115 103.574 121.823 103.256 121.611 102.832C121.399 102.404 121.293 101.866 121.293 101.216V96.3636H122.466V101.136C122.466 101.693 122.622 102.137 122.933 102.469C123.248 102.8 123.649 102.966 124.136 102.966C124.428 102.966 124.725 102.891 125.026 102.742C125.331 102.593 125.586 102.364 125.792 102.056C126.001 101.748 126.105 101.355 126.105 100.878ZM130.601 99.4062V104H129.427V96.3636H130.561V97.5568H130.66C130.839 97.169 131.111 96.8575 131.476 96.6222C131.84 96.3835 132.311 96.2642 132.888 96.2642C133.405 96.2642 133.857 96.3703 134.245 96.5824C134.633 96.7912 134.934 97.1094 135.15 97.5369C135.365 97.9612 135.473 98.4981 135.473 99.1477V104H134.3V99.2273C134.3 98.6274 134.144 98.16 133.832 97.8253C133.521 97.4872 133.093 97.3182 132.55 97.3182C132.175 97.3182 131.84 97.3994 131.545 97.5618C131.254 97.7242 131.023 97.9612 130.854 98.2727C130.685 98.5843 130.601 98.9621 130.601 99.4062ZM143.026 98.0739L141.972 98.3722C141.906 98.1965 141.808 98.0258 141.679 97.8601C141.553 97.6911 141.38 97.5518 141.162 97.4425C140.943 97.3331 140.663 97.2784 140.321 97.2784C139.854 97.2784 139.465 97.3861 139.153 97.6016C138.845 97.8137 138.691 98.0838 138.691 98.4119C138.691 98.7036 138.797 98.9339 139.009 99.103C139.221 99.272 139.552 99.4129 140.003 99.5256L141.137 99.804C141.819 99.9697 142.328 100.223 142.663 100.565C142.998 100.903 143.165 101.339 143.165 101.872C143.165 102.31 143.039 102.701 142.787 103.045C142.539 103.39 142.191 103.662 141.743 103.861C141.296 104.06 140.775 104.159 140.182 104.159C139.403 104.159 138.759 103.99 138.248 103.652C137.738 103.314 137.415 102.82 137.279 102.17L138.392 101.892C138.498 102.303 138.699 102.611 138.994 102.817C139.292 103.022 139.682 103.125 140.162 103.125C140.709 103.125 141.143 103.009 141.465 102.777C141.79 102.542 141.952 102.26 141.952 101.932C141.952 101.667 141.859 101.445 141.674 101.266C141.488 101.083 141.203 100.947 140.819 100.858L139.546 100.56C138.846 100.394 138.333 100.137 138.005 99.7891C137.68 99.4377 137.517 98.9986 137.517 98.4716C137.517 98.0407 137.638 97.6596 137.88 97.3281C138.126 96.9967 138.459 96.7365 138.88 96.5476C139.304 96.3587 139.784 96.2642 140.321 96.2642C141.077 96.2642 141.67 96.4299 142.101 96.7614C142.535 97.0928 142.844 97.5303 143.026 98.0739ZM148.252 96.3636V97.358H144.295V96.3636H148.252ZM145.448 94.5341H146.622V101.812C146.622 102.144 146.67 102.393 146.766 102.558C146.865 102.721 146.991 102.83 147.144 102.886C147.299 102.939 147.463 102.966 147.636 102.966C147.765 102.966 147.871 102.959 147.954 102.946C148.037 102.929 148.103 102.916 148.153 102.906L148.392 103.96C148.312 103.99 148.201 104.02 148.058 104.05C147.916 104.083 147.735 104.099 147.517 104.099C147.185 104.099 146.86 104.028 146.542 103.886C146.227 103.743 145.965 103.526 145.757 103.234C145.551 102.943 145.448 102.575 145.448 102.131V94.5341ZM152.264 104.179C151.78 104.179 151.341 104.088 150.947 103.906C150.552 103.72 150.239 103.453 150.007 103.105C149.775 102.754 149.659 102.33 149.659 101.832C149.659 101.395 149.745 101.04 149.918 100.768C150.09 100.493 150.32 100.278 150.609 100.122C150.897 99.9664 151.215 99.8504 151.563 99.7741C151.915 99.6946 152.268 99.6316 152.622 99.5852C153.086 99.5256 153.463 99.4808 153.751 99.451C154.043 99.4179 154.255 99.3632 154.387 99.2869C154.523 99.2107 154.591 99.0781 154.591 98.8892V98.8494C154.591 98.3589 154.457 97.9777 154.188 97.706C153.923 97.4342 153.521 97.2983 152.98 97.2983C152.42 97.2983 151.981 97.4209 151.663 97.6662C151.345 97.9115 151.121 98.1733 150.992 98.4517L149.878 98.054C150.077 97.59 150.342 97.2287 150.673 96.9702C151.008 96.7083 151.373 96.526 151.767 96.4233C152.165 96.3172 152.556 96.2642 152.941 96.2642C153.186 96.2642 153.468 96.294 153.786 96.3537C154.107 96.41 154.417 96.5277 154.715 96.7067C155.017 96.8857 155.267 97.1558 155.466 97.517C155.665 97.8783 155.764 98.3622 155.764 98.9688V104H154.591V102.966H154.531C154.452 103.132 154.319 103.309 154.134 103.498C153.948 103.687 153.701 103.848 153.393 103.98C153.085 104.113 152.709 104.179 152.264 104.179ZM152.443 103.125C152.907 103.125 153.298 103.034 153.617 102.852C153.938 102.669 154.18 102.434 154.343 102.146C154.508 101.857 154.591 101.554 154.591 101.236V100.162C154.541 100.222 154.432 100.276 154.263 100.326C154.097 100.372 153.905 100.414 153.686 100.45C153.471 100.483 153.26 100.513 153.055 100.54C152.853 100.563 152.689 100.583 152.563 100.599C152.258 100.639 151.973 100.704 151.708 100.793C151.446 100.879 151.234 101.01 151.071 101.186C150.912 101.358 150.833 101.594 150.833 101.892C150.833 102.3 150.983 102.608 151.285 102.817C151.59 103.022 151.976 103.125 152.443 103.125ZM154.054 95.4489L153.02 94.0568L151.986 95.4489H150.872V95.3693L152.483 93.3011H153.557L155.168 95.3693V95.4489H154.054ZM159.079 99.4062V104H157.906V96.3636H159.039V97.5568H159.139C159.318 97.169 159.59 96.8575 159.954 96.6222C160.319 96.3835 160.789 96.2642 161.366 96.2642C161.883 96.2642 162.336 96.3703 162.723 96.5824C163.111 96.7912 163.413 97.1094 163.628 97.5369C163.844 97.9612 163.951 98.4981 163.951 99.1477V104H162.778V99.2273C162.778 98.6274 162.622 98.16 162.311 97.8253C161.999 97.4872 161.572 97.3182 161.028 97.3182C160.654 97.3182 160.319 97.3994 160.024 97.5618C159.732 97.7242 159.502 97.9612 159.333 98.2727C159.164 98.5843 159.079 98.9621 159.079 99.4062ZM169.198 104.159C168.482 104.159 167.865 103.99 167.348 103.652C166.831 103.314 166.433 102.848 166.155 102.255C165.877 101.662 165.737 100.984 165.737 100.222C165.737 99.446 165.88 98.7616 166.165 98.1683C166.453 97.5717 166.854 97.1061 167.368 96.7713C167.885 96.4332 168.488 96.2642 169.178 96.2642C169.715 96.2642 170.199 96.3636 170.629 96.5625C171.06 96.7614 171.413 97.0398 171.688 97.3977C171.963 97.7557 172.134 98.1733 172.2 98.6506H171.027C170.938 98.3026 170.739 97.9943 170.431 97.7259C170.126 97.4541 169.715 97.3182 169.198 97.3182C168.74 97.3182 168.339 97.4375 167.994 97.6761C167.653 97.9115 167.386 98.2446 167.194 98.6754C167.005 99.103 166.911 99.6051 166.911 100.182C166.911 100.772 167.003 101.286 167.189 101.723C167.378 102.161 167.643 102.5 167.985 102.742C168.329 102.984 168.734 103.105 169.198 103.105C169.503 103.105 169.779 103.052 170.028 102.946C170.276 102.84 170.487 102.688 170.659 102.489C170.832 102.29 170.954 102.051 171.027 101.773H172.2C172.134 102.223 171.97 102.629 171.708 102.991C171.45 103.349 171.107 103.634 170.679 103.846C170.255 104.055 169.761 104.159 169.198 104.159ZM173.916 104V96.3636H175.089V104H173.916ZM174.512 95.0909C174.284 95.0909 174.086 95.013 173.921 94.8572C173.758 94.7015 173.677 94.5142 173.677 94.2955C173.677 94.0767 173.758 93.8894 173.921 93.7337C174.086 93.5779 174.284 93.5 174.512 93.5C174.741 93.5 174.936 93.5779 175.099 93.7337C175.265 93.8894 175.347 94.0767 175.347 94.2955C175.347 94.5142 175.265 94.7015 175.099 94.8572C174.936 95.013 174.741 95.0909 174.512 95.0909ZM179.485 104.179C179.001 104.179 178.562 104.088 178.168 103.906C177.773 103.72 177.46 103.453 177.228 103.105C176.996 102.754 176.88 102.33 176.88 101.832C176.88 101.395 176.966 101.04 177.138 100.768C177.311 100.493 177.541 100.278 177.83 100.122C178.118 99.9664 178.436 99.8504 178.784 99.7741C179.135 99.6946 179.488 99.6316 179.843 99.5852C180.307 99.5256 180.683 99.4808 180.972 99.451C181.263 99.4179 181.475 99.3632 181.608 99.2869C181.744 99.2107 181.812 99.0781 181.812 98.8892V98.8494C181.812 98.3589 181.678 97.9777 181.409 97.706C181.144 97.4342 180.741 97.2983 180.201 97.2983C179.641 97.2983 179.202 97.4209 178.884 97.6662C178.565 97.9115 178.342 98.1733 178.212 98.4517L177.099 98.054C177.298 97.59 177.563 97.2287 177.894 96.9702C178.229 96.7083 178.594 96.526 178.988 96.4233C179.386 96.3172 179.777 96.2642 180.161 96.2642C180.406 96.2642 180.688 96.294 181.006 96.3537C181.328 96.41 181.638 96.5277 181.936 96.7067C182.238 96.8857 182.488 97.1558 182.687 97.517C182.886 97.8783 182.985 98.3622 182.985 98.9688V104H181.812V102.966H181.752C181.673 103.132 181.54 103.309 181.354 103.498C181.169 103.687 180.922 103.848 180.614 103.98C180.305 104.113 179.929 104.179 179.485 104.179ZM179.664 103.125C180.128 103.125 180.519 103.034 180.837 102.852C181.159 102.669 181.401 102.434 181.563 102.146C181.729 101.857 181.812 101.554 181.812 101.236V100.162C181.762 100.222 181.653 100.276 181.484 100.326C181.318 100.372 181.126 100.414 180.907 100.45C180.692 100.483 180.481 100.513 180.276 100.54C180.073 100.563 179.909 100.583 179.783 100.599C179.478 100.639 179.193 100.704 178.928 100.793C178.666 100.879 178.454 101.01 178.292 101.186C178.133 101.358 178.053 101.594 178.053 101.892C178.053 102.3 178.204 102.608 178.506 102.817C178.811 103.022 179.197 103.125 179.664 103.125ZM190.237 99.4062V104H189.064V96.3636H190.198V97.5568H190.297C190.476 97.169 190.748 96.8575 191.112 96.6222C191.477 96.3835 191.948 96.2642 192.524 96.2642C193.041 96.2642 193.494 96.3703 193.882 96.5824C194.269 96.7912 194.571 97.1094 194.786 97.5369C195.002 97.9612 195.11 98.4981 195.11 99.1477V104H193.936V99.2273C193.936 98.6274 193.78 98.16 193.469 97.8253C193.157 97.4872 192.73 97.3182 192.186 97.3182C191.812 97.3182 191.477 97.3994 191.182 97.5618C190.89 97.7242 190.66 97.9612 190.491 98.2727C190.322 98.5843 190.237 98.9621 190.237 99.4062ZM200.455 104.159C199.719 104.159 199.085 103.997 198.551 103.672C198.021 103.344 197.612 102.886 197.323 102.3C197.038 101.71 196.896 101.024 196.896 100.241C196.896 99.4593 197.038 98.7699 197.323 98.1733C197.612 97.5734 198.013 97.1061 198.526 96.7713C199.043 96.4332 199.647 96.2642 200.336 96.2642C200.734 96.2642 201.126 96.3305 201.514 96.4631C201.902 96.5956 202.255 96.8111 202.573 97.1094C202.891 97.4044 203.145 97.7955 203.334 98.2827C203.523 98.7699 203.617 99.3698 203.617 100.082V100.58H197.731V99.5653H202.424C202.424 99.1345 202.338 98.75 202.165 98.4119C201.996 98.0739 201.754 97.8071 201.44 97.6115C201.128 97.416 200.76 97.3182 200.336 97.3182C199.869 97.3182 199.464 97.4342 199.123 97.6662C198.785 97.8949 198.525 98.1932 198.342 98.5611C198.16 98.929 198.069 99.3234 198.069 99.7443V100.42C198.069 100.997 198.168 101.486 198.367 101.887C198.569 102.285 198.849 102.588 199.207 102.797C199.565 103.002 199.981 103.105 200.455 103.105C200.763 103.105 201.042 103.062 201.29 102.976C201.542 102.886 201.759 102.754 201.942 102.578C202.124 102.399 202.265 102.177 202.364 101.912L203.498 102.23C203.379 102.615 203.178 102.953 202.896 103.244C202.615 103.533 202.267 103.758 201.852 103.92C201.438 104.08 200.972 104.159 200.455 104.159ZM208.484 107.023C207.918 107.023 207.43 106.95 207.023 106.804C206.615 106.661 206.275 106.473 206.004 106.237C205.735 106.005 205.521 105.757 205.362 105.491L206.297 104.835C206.403 104.974 206.537 105.134 206.7 105.312C206.862 105.495 207.084 105.652 207.366 105.785C207.651 105.921 208.024 105.989 208.484 105.989C209.101 105.989 209.61 105.839 210.011 105.541C210.412 105.243 210.612 104.776 210.612 104.139V102.588H210.513C210.427 102.727 210.304 102.9 210.145 103.105C209.989 103.307 209.764 103.488 209.469 103.647C209.177 103.803 208.783 103.881 208.286 103.881C207.669 103.881 207.116 103.735 206.625 103.443C206.138 103.152 205.752 102.727 205.467 102.17C205.185 101.614 205.044 100.937 205.044 100.142C205.044 99.3598 205.182 98.6787 205.457 98.0987C205.732 97.5154 206.115 97.0646 206.605 96.7464C207.096 96.425 207.662 96.2642 208.305 96.2642C208.803 96.2642 209.197 96.3471 209.489 96.5128C209.784 96.6752 210.009 96.8608 210.165 97.0696C210.324 97.2751 210.446 97.4441 210.533 97.5767H210.652V96.3636H211.786V104.219C211.786 104.875 211.636 105.409 211.338 105.82C211.043 106.234 210.645 106.537 210.145 106.729C209.648 106.925 209.094 107.023 208.484 107.023ZM208.445 102.827C208.915 102.827 209.313 102.719 209.638 102.504C209.963 102.288 210.21 101.978 210.379 101.574C210.548 101.17 210.632 100.686 210.632 100.122C210.632 99.572 210.549 99.0864 210.384 98.6655C210.218 98.2446 209.973 97.9148 209.648 97.6761C209.323 97.4375 208.922 97.3182 208.445 97.3182C207.947 97.3182 207.533 97.4441 207.202 97.696C206.874 97.9479 206.627 98.286 206.461 98.7102C206.299 99.1345 206.217 99.6051 206.217 100.122C206.217 100.652 206.3 101.121 206.466 101.529C206.635 101.933 206.884 102.252 207.212 102.484C207.543 102.712 207.954 102.827 208.445 102.827ZM216.18 104.179C215.696 104.179 215.257 104.088 214.863 103.906C214.469 103.72 214.155 103.453 213.923 103.105C213.691 102.754 213.575 102.33 213.575 101.832C213.575 101.395 213.661 101.04 213.834 100.768C214.006 100.493 214.237 100.278 214.525 100.122C214.813 99.9664 215.131 99.8504 215.479 99.7741C215.831 99.6946 216.184 99.6316 216.538 99.5852C217.002 99.5256 217.379 99.4808 217.667 99.451C217.959 99.4179 218.171 99.3632 218.303 99.2869C218.439 99.2107 218.507 99.0781 218.507 98.8892V98.8494C218.507 98.3589 218.373 97.9777 218.104 97.706C217.839 97.4342 217.437 97.2983 216.896 97.2983C216.336 97.2983 215.897 97.4209 215.579 97.6662C215.261 97.9115 215.037 98.1733 214.908 98.4517L213.794 98.054C213.993 97.59 214.258 97.2287 214.589 96.9702C214.924 96.7083 215.289 96.526 215.683 96.4233C216.081 96.3172 216.472 96.2642 216.857 96.2642C217.102 96.2642 217.384 96.294 217.702 96.3537C218.023 96.41 218.333 96.5277 218.631 96.7067C218.933 96.8857 219.183 97.1558 219.382 97.517C219.581 97.8783 219.68 98.3622 219.68 98.9688V104H218.507V102.966H218.447C218.368 103.132 218.235 103.309 218.05 103.498C217.864 103.687 217.617 103.848 217.309 103.98C217.001 104.113 216.625 104.179 216.18 104.179ZM216.359 103.125C216.823 103.125 217.214 103.034 217.533 102.852C217.854 102.669 218.096 102.434 218.259 102.146C218.424 101.857 218.507 101.554 218.507 101.236V100.162C218.457 100.222 218.348 100.276 218.179 100.326C218.013 100.372 217.821 100.414 217.602 100.45C217.387 100.483 217.176 100.513 216.971 100.54C216.769 100.563 216.605 100.583 216.479 100.599C216.174 100.639 215.889 100.704 215.624 100.793C215.362 100.879 215.15 101.01 214.987 101.186C214.828 101.358 214.749 101.594 214.749 101.892C214.749 102.3 214.899 102.608 215.201 102.817C215.506 103.022 215.892 103.125 216.359 103.125ZM225.143 96.3636V97.358H221.186V96.3636H225.143ZM222.339 94.5341H223.512V101.812C223.512 102.144 223.56 102.393 223.656 102.558C223.756 102.721 223.882 102.83 224.034 102.886C224.19 102.939 224.354 102.966 224.526 102.966C224.656 102.966 224.762 102.959 224.845 102.946C224.927 102.929 224.994 102.916 225.044 102.906L225.282 103.96C225.203 103.99 225.092 104.02 224.949 104.05C224.807 104.083 224.626 104.099 224.407 104.099C224.076 104.099 223.751 104.028 223.433 103.886C223.118 103.743 222.856 103.526 222.647 103.234C222.442 102.943 222.339 102.575 222.339 102.131V94.5341ZM226.908 104V96.3636H228.081V104H226.908ZM227.504 95.0909C227.276 95.0909 227.079 95.013 226.913 94.8572C226.75 94.7015 226.669 94.5142 226.669 94.2955C226.669 94.0767 226.75 93.8894 226.913 93.7337C227.079 93.5779 227.276 93.5 227.504 93.5C227.733 93.5 227.929 93.5779 228.091 93.7337C228.257 93.8894 228.34 94.0767 228.34 94.2955C228.34 94.5142 228.257 94.7015 228.091 94.8572C227.929 95.013 227.733 95.0909 227.504 95.0909ZM236.474 96.3636L233.651 104H232.457L229.634 96.3636H230.906L233.014 102.449H233.094L235.202 96.3636H236.474ZM240.038 104.179C239.554 104.179 239.115 104.088 238.72 103.906C238.326 103.72 238.013 103.453 237.781 103.105C237.549 102.754 237.433 102.33 237.433 101.832C237.433 101.395 237.519 101.04 237.691 100.768C237.864 100.493 238.094 100.278 238.382 100.122C238.671 99.9664 238.989 99.8504 239.337 99.7741C239.688 99.6946 240.041 99.6316 240.396 99.5852C240.86 99.5256 241.236 99.4808 241.524 99.451C241.816 99.4179 242.028 99.3632 242.161 99.2869C242.297 99.2107 242.365 99.0781 242.365 98.8892V98.8494C242.365 98.3589 242.23 97.9777 241.962 97.706C241.697 97.4342 241.294 97.2983 240.754 97.2983C240.194 97.2983 239.754 97.4209 239.436 97.6662C239.118 97.9115 238.894 98.1733 238.765 98.4517L237.651 98.054C237.85 97.59 238.115 97.2287 238.447 96.9702C238.782 96.7083 239.146 96.526 239.541 96.4233C239.938 96.3172 240.329 96.2642 240.714 96.2642C240.959 96.2642 241.241 96.294 241.559 96.3537C241.881 96.41 242.191 96.5277 242.489 96.7067C242.79 96.8857 243.041 97.1558 243.24 97.517C243.438 97.8783 243.538 98.3622 243.538 98.9688V104H242.365V102.966H242.305C242.225 103.132 242.093 103.309 241.907 103.498C241.722 103.687 241.475 103.848 241.166 103.98C240.858 104.113 240.482 104.179 240.038 104.179ZM240.217 103.125C240.681 103.125 241.072 103.034 241.39 102.852C241.712 102.669 241.954 102.434 242.116 102.146C242.282 101.857 242.365 101.554 242.365 101.236V100.162C242.315 100.222 242.205 100.276 242.036 100.326C241.871 100.372 241.678 100.414 241.46 100.45C241.244 100.483 241.034 100.513 240.828 100.54C240.626 100.563 240.462 100.583 240.336 100.599C240.031 100.639 239.746 100.704 239.481 100.793C239.219 100.879 239.007 101.01 238.845 101.186C238.686 101.358 238.606 101.594 238.606 101.892C238.606 102.3 238.757 102.608 239.058 102.817C239.363 103.022 239.749 103.125 240.217 103.125ZM251.864 104.179C251.38 104.179 250.941 104.088 250.547 103.906C250.152 103.72 249.839 103.453 249.607 103.105C249.375 102.754 249.259 102.33 249.259 101.832C249.259 101.395 249.345 101.04 249.517 100.768C249.69 100.493 249.92 100.278 250.208 100.122C250.497 99.9664 250.815 99.8504 251.163 99.7741C251.514 99.6946 251.867 99.6316 252.222 99.5852C252.686 99.5256 253.062 99.4808 253.35 99.451C253.642 99.4179 253.854 99.3632 253.987 99.2869C254.123 99.2107 254.191 99.0781 254.191 98.8892V98.8494C254.191 98.3589 254.056 97.9777 253.788 97.706C253.523 97.4342 253.12 97.2983 252.58 97.2983C252.02 97.2983 251.581 97.4209 251.262 97.6662C250.944 97.9115 250.721 98.1733 250.591 98.4517L249.478 98.054C249.676 97.59 249.942 97.2287 250.273 96.9702C250.608 96.7083 250.972 96.526 251.367 96.4233C251.765 96.3172 252.156 96.2642 252.54 96.2642C252.785 96.2642 253.067 96.294 253.385 96.3537C253.707 96.41 254.017 96.5277 254.315 96.7067C254.617 96.8857 254.867 97.1558 255.066 97.517C255.265 97.8783 255.364 98.3622 255.364 98.9688V104H254.191V102.966H254.131C254.051 103.132 253.919 103.309 253.733 103.498C253.548 103.687 253.301 103.848 252.993 103.98C252.684 104.113 252.308 104.179 251.864 104.179ZM252.043 103.125C252.507 103.125 252.898 103.034 253.216 102.852C253.538 102.669 253.78 102.434 253.942 102.146C254.108 101.857 254.191 101.554 254.191 101.236V100.162C254.141 100.222 254.032 100.276 253.863 100.326C253.697 100.372 253.505 100.414 253.286 100.45C253.07 100.483 252.86 100.513 252.654 100.54C252.452 100.563 252.288 100.583 252.162 100.599C251.857 100.639 251.572 100.704 251.307 100.793C251.045 100.879 250.833 101.01 250.671 101.186C250.512 101.358 250.432 101.594 250.432 101.892C250.432 102.3 250.583 102.608 250.885 102.817C251.19 103.022 251.576 103.125 252.043 103.125ZM257.506 106.864V96.3636H258.639V97.5767H258.778C258.864 97.4441 258.984 97.2751 259.136 97.0696C259.292 96.8608 259.514 96.6752 259.802 96.5128C260.094 96.3471 260.488 96.2642 260.986 96.2642C261.629 96.2642 262.195 96.425 262.686 96.7464C263.176 97.0679 263.559 97.5237 263.834 98.1136C264.109 98.7036 264.247 99.3996 264.247 100.202C264.247 101.01 264.109 101.711 263.834 102.305C263.559 102.895 263.178 103.352 262.691 103.677C262.204 103.998 261.642 104.159 261.006 104.159C260.515 104.159 260.122 104.078 259.827 103.915C259.532 103.75 259.305 103.562 259.146 103.354C258.987 103.142 258.864 102.966 258.778 102.827H258.679V106.864H257.506ZM258.659 100.182C258.659 100.759 258.743 101.267 258.912 101.708C259.081 102.146 259.328 102.489 259.653 102.737C259.978 102.982 260.376 103.105 260.846 103.105C261.337 103.105 261.746 102.976 262.074 102.717C262.406 102.455 262.654 102.104 262.82 101.663C262.989 101.219 263.074 100.725 263.074 100.182C263.074 99.6449 262.991 99.161 262.825 98.7301C262.663 98.2959 262.416 97.9529 262.084 97.701C261.756 97.4458 261.344 97.3182 260.846 97.3182C260.369 97.3182 259.968 97.4392 259.643 97.6811C259.318 97.9197 259.073 98.2545 258.907 98.6854C258.742 99.1129 258.659 99.6117 258.659 100.182ZM267.21 93.8182V104H266.037V93.8182H267.21ZM269.359 104V96.3636H270.532V104H269.359ZM269.956 95.0909C269.727 95.0909 269.53 95.013 269.364 94.8572C269.202 94.7015 269.12 94.5142 269.12 94.2955C269.12 94.0767 269.202 93.8894 269.364 93.7337C269.53 93.5779 269.727 93.5 269.956 93.5C270.184 93.5 270.38 93.5779 270.542 93.7337C270.708 93.8894 270.791 94.0767 270.791 94.2955C270.791 94.5142 270.708 94.7015 270.542 94.8572C270.38 95.013 270.184 95.0909 269.956 95.0909ZM275.784 104.159C275.068 104.159 274.451 103.99 273.934 103.652C273.417 103.314 273.019 102.848 272.741 102.255C272.463 101.662 272.323 100.984 272.323 100.222C272.323 99.446 272.466 98.7616 272.751 98.1683C273.039 97.5717 273.44 97.1061 273.954 96.7713C274.471 96.4332 275.074 96.2642 275.764 96.2642C276.301 96.2642 276.785 96.3636 277.215 96.5625C277.646 96.7614 277.999 97.0398 278.274 97.3977C278.549 97.7557 278.72 98.1733 278.786 98.6506H277.613C277.524 98.3026 277.325 97.9943 277.017 97.7259C276.712 97.4541 276.301 97.3182 275.784 97.3182C275.326 97.3182 274.925 97.4375 274.58 97.6761C274.239 97.9115 273.972 98.2446 273.78 98.6754C273.591 99.103 273.497 99.6051 273.497 100.182C273.497 100.772 273.589 101.286 273.775 101.723C273.964 102.161 274.229 102.5 274.57 102.742C274.915 102.984 275.32 103.105 275.784 103.105C276.088 103.105 276.365 103.052 276.614 102.946C276.862 102.84 277.073 102.688 277.245 102.489C277.418 102.29 277.54 102.051 277.613 101.773H278.786C278.72 102.223 278.556 102.629 278.294 102.991C278.036 103.349 277.693 103.634 277.265 103.846C276.841 104.055 276.347 104.159 275.784 104.159ZM282.749 104.179C282.265 104.179 281.826 104.088 281.431 103.906C281.037 103.72 280.724 103.453 280.492 103.105C280.26 102.754 280.144 102.33 280.144 101.832C280.144 101.395 280.23 101.04 280.402 100.768C280.575 100.493 280.805 100.278 281.093 100.122C281.382 99.9664 281.7 99.8504 282.048 99.7741C282.399 99.6946 282.752 99.6316 283.107 99.5852C283.571 99.5256 283.947 99.4808 284.235 99.451C284.527 99.4179 284.739 99.3632 284.872 99.2869C285.008 99.2107 285.075 99.0781 285.075 98.8892V98.8494C285.075 98.3589 284.941 97.9777 284.673 97.706C284.408 97.4342 284.005 97.2983 283.465 97.2983C282.905 97.2983 282.465 97.4209 282.147 97.6662C281.829 97.9115 281.605 98.1733 281.476 98.4517L280.362 98.054C280.561 97.59 280.826 97.2287 281.158 96.9702C281.493 96.7083 281.857 96.526 282.252 96.4233C282.649 96.3172 283.04 96.2642 283.425 96.2642C283.67 96.2642 283.952 96.294 284.27 96.3537C284.592 96.41 284.901 96.5277 285.2 96.7067C285.501 96.8857 285.752 97.1558 285.95 97.517C286.149 97.8783 286.249 98.3622 286.249 98.9688V104H285.075V102.966H285.016C284.936 103.132 284.804 103.309 284.618 103.498C284.432 103.687 284.186 103.848 283.877 103.98C283.569 104.113 283.193 104.179 282.749 104.179ZM282.928 103.125C283.392 103.125 283.783 103.034 284.101 102.852C284.423 102.669 284.664 102.434 284.827 102.146C284.993 101.857 285.075 101.554 285.075 101.236V100.162C285.026 100.222 284.916 100.276 284.747 100.326C284.582 100.372 284.389 100.414 284.171 100.45C283.955 100.483 283.745 100.513 283.539 100.54C283.337 100.563 283.173 100.583 283.047 100.599C282.742 100.639 282.457 100.704 282.192 100.793C281.93 100.879 281.718 101.01 281.556 101.186C281.396 101.358 281.317 101.594 281.317 101.892C281.317 102.3 281.468 102.608 281.769 102.817C282.074 103.022 282.46 103.125 282.928 103.125ZM291.274 104.159C290.637 104.159 290.076 103.998 289.588 103.677C289.101 103.352 288.72 102.895 288.445 102.305C288.17 101.711 288.032 101.01 288.032 100.202C288.032 99.3996 288.17 98.7036 288.445 98.1136C288.72 97.5237 289.103 97.0679 289.593 96.7464C290.084 96.425 290.651 96.2642 291.294 96.2642C291.791 96.2642 292.184 96.3471 292.472 96.5128C292.764 96.6752 292.986 96.8608 293.138 97.0696C293.294 97.2751 293.415 97.4441 293.501 97.5767H293.6V93.8182H294.774V104H293.64V102.827H293.501C293.415 102.966 293.292 103.142 293.133 103.354C292.974 103.562 292.747 103.75 292.452 103.915C292.157 104.078 291.764 104.159 291.274 104.159ZM291.433 103.105C291.904 103.105 292.301 102.982 292.626 102.737C292.951 102.489 293.198 102.146 293.367 101.708C293.536 101.267 293.62 100.759 293.62 100.182C293.62 99.6117 293.538 99.1129 293.372 98.6854C293.206 98.2545 292.961 97.9197 292.636 97.6811C292.311 97.4392 291.91 97.3182 291.433 97.3182C290.936 97.3182 290.521 97.4458 290.19 97.701C289.862 97.9529 289.615 98.2959 289.449 98.7301C289.287 99.161 289.206 99.6449 289.206 100.182C289.206 100.725 289.288 101.219 289.454 101.663C289.623 102.104 289.872 102.455 290.2 102.717C290.531 102.976 290.942 103.105 291.433 103.105ZM299.333 104.179C298.849 104.179 298.41 104.088 298.015 103.906C297.621 103.72 297.308 103.453 297.076 103.105C296.844 102.754 296.728 102.33 296.728 101.832C296.728 101.395 296.814 101.04 296.986 100.768C297.158 100.493 297.389 100.278 297.677 100.122C297.966 99.9664 298.284 99.8504 298.632 99.7741C298.983 99.6946 299.336 99.6316 299.691 99.5852C300.155 99.5256 300.531 99.4808 300.819 99.451C301.111 99.4179 301.323 99.3632 301.456 99.2869C301.592 99.2107 301.659 99.0781 301.659 98.8892V98.8494C301.659 98.3589 301.525 97.9777 301.257 97.706C300.992 97.4342 300.589 97.2983 300.049 97.2983C299.489 97.2983 299.049 97.4209 298.731 97.6662C298.413 97.9115 298.189 98.1733 298.06 98.4517L296.946 98.054C297.145 97.59 297.41 97.2287 297.742 96.9702C298.077 96.7083 298.441 96.526 298.836 96.4233C299.233 96.3172 299.624 96.2642 300.009 96.2642C300.254 96.2642 300.536 96.294 300.854 96.3537C301.176 96.41 301.485 96.5277 301.784 96.7067C302.085 96.8857 302.336 97.1558 302.534 97.517C302.733 97.8783 302.833 98.3622 302.833 98.9688V104H301.659V102.966H301.6C301.52 103.132 301.388 103.309 301.202 103.498C301.016 103.687 300.77 103.848 300.461 103.98C300.153 104.113 299.777 104.179 299.333 104.179ZM299.512 103.125C299.976 103.125 300.367 103.034 300.685 102.852C301.007 102.669 301.248 102.434 301.411 102.146C301.577 101.857 301.659 101.554 301.659 101.236V100.162C301.61 100.222 301.5 100.276 301.331 100.326C301.166 100.372 300.973 100.414 300.755 100.45C300.539 100.483 300.329 100.513 300.123 100.54C299.921 100.563 299.757 100.583 299.631 100.599C299.326 100.639 299.041 100.704 298.776 100.793C298.514 100.879 298.302 101.01 298.14 101.186C297.98 101.358 297.901 101.594 297.901 101.892C297.901 102.3 298.052 102.608 298.353 102.817C298.658 103.022 299.044 103.125 299.512 103.125ZM305.829 104.08C305.584 104.08 305.374 103.992 305.198 103.816C305.022 103.64 304.934 103.43 304.934 103.185C304.934 102.939 305.022 102.729 305.198 102.553C305.374 102.378 305.584 102.29 305.829 102.29C306.075 102.29 306.285 102.378 306.461 102.553C306.636 102.729 306.724 102.939 306.724 103.185C306.724 103.347 306.683 103.496 306.6 103.632C306.52 103.768 306.413 103.877 306.277 103.96C306.144 104.04 305.995 104.08 305.829 104.08Z" fill="white"/>
</g>
<defs>
<filter id="filter0_dd_6_88" x="0" y="0" width="368" height="142" filterUnits="userSpaceOnUse" color-interpolation-filters="sRGB">
<feFlood flood-opacity="0" result="BackgroundImageFix"/>
<feColorMatrix in="SourceAlpha" type="matrix" values="0 0 0 0 0 0 0 0 0 0 0 0 0 0 0 0 0 0 127 0" result="hardAlpha"/>
<feMorphology radius="2" operator="erode" in="SourceAlpha" result="effect1_dropShadow_6_88"/>
<feOffset dy="2"/>
<feGaussianBlur stdDeviation="2"/>
<feComposite in2="hardAlpha" operator="out"/>
<feColorMatrix type="matrix" values="0 0 0 0 0 0 0 0 0 0 0 0 0 0 0 0 0 0 0.1 0"/>
<feBlend mode="normal" in2="BackgroundImageFix" result="effect1_dropShadow_6_88"/>
<feColorMatrix in="SourceAlpha" type="matrix" values="0 0 0 0 0 0 0 0 0 0 0 0 0 0 0 0 0 0 127 0" result="hardAlpha"/>
<feMorphology radius="1" operator="erode" in="SourceAlpha" result="effect2_dropShadow_6_88"/>
<feOffset dy="4"/>
<feGaussianBlur stdDeviation="3"/>
<feComposite in2="hardAlpha" operator="out"/>
<feColorMatrix type="matrix" values="0 0 0 0 0 0 0 0 0 0 0 0 0 0 0 0 0 0 0.1 0"/>
<feBlend mode="normal" in2="effect1_dropShadow_6_88" result="effect2_dropShadow_6_88"/>
<feBlend mode="normal" in="SourceGraphic" in2="effect2_dropShadow_6_88" result="shape"/>
</filter>
</defs>
</svg>
