<svg width="358" height="347" viewBox="0 0 358 347" fill="none" xmlns="http://www.w3.org/2000/svg">
<rect x="0.5" y="0.5" width="357" height="346" rx="7.5" fill="white"/>
<rect x="0.5" y="0.5" width="357" height="346" rx="7.5" stroke="#C4C6CF"/>
<path d="M26.4 47V32.6H30.91C31.0433 32.6 31.29 32.6033 31.65 32.61C32.0167 32.6167 32.3667 32.6433 32.7 32.69C33.8267 32.83 34.7733 33.2333 35.54 33.9C36.3133 34.5667 36.8967 35.4133 37.29 36.44C37.6833 37.46 37.88 38.58 37.88 39.8C37.88 41.0267 37.6833 42.1533 37.29 43.18C36.8967 44.2 36.3133 45.0433 35.54 45.71C34.7733 46.37 33.8267 46.77 32.7 46.91C32.3667 46.9567 32.0167 46.9833 31.65 46.99C31.29 46.9967 31.0433 47 30.91 47H26.4ZM28.54 45.01H30.91C31.1367 45.01 31.4067 45.0033 31.72 44.99C32.0333 44.9767 32.31 44.95 32.55 44.91C33.2833 44.77 33.8767 44.4533 34.33 43.96C34.79 43.46 35.1267 42.8467 35.34 42.12C35.5533 41.3933 35.66 40.62 35.66 39.8C35.66 38.9533 35.55 38.17 35.33 37.45C35.11 36.7233 34.77 36.1167 34.31 35.63C33.8567 35.1367 33.27 34.8233 32.55 34.69C32.31 34.6433 32.03 34.6167 31.71 34.61C31.3967 34.5967 31.13 34.59 30.91 34.59H28.54V45.01ZM43.2586 47.3C42.4586 47.3 41.7886 47.1533 41.2486 46.86C40.7086 46.56 40.2986 46.1667 40.0186 45.68C39.7453 45.1867 39.6086 44.6467 39.6086 44.06C39.6086 43.5133 39.7053 43.0333 39.8986 42.62C40.0919 42.2067 40.3786 41.8567 40.7586 41.57C41.1386 41.2767 41.6053 41.04 42.1586 40.86C42.6386 40.72 43.1819 40.5967 43.7886 40.49C44.3953 40.3833 45.0319 40.2833 45.6986 40.19C46.3719 40.0967 47.0386 40.0033 47.6986 39.91L46.9386 40.33C46.9519 39.4833 46.7719 38.8567 46.3986 38.45C46.0319 38.0367 45.3986 37.83 44.4986 37.83C43.9319 37.83 43.4119 37.9633 42.9386 38.23C42.4653 38.49 42.1353 38.9233 41.9486 39.53L39.9986 38.93C40.2653 38.0033 40.7719 37.2667 41.5186 36.72C42.2719 36.1733 43.2719 35.9 44.5186 35.9C45.4853 35.9 46.3253 36.0667 47.0386 36.4C47.7586 36.7267 48.2853 37.2467 48.6186 37.96C48.7919 38.3133 48.8986 38.6867 48.9386 39.08C48.9786 39.4733 48.9986 39.8967 48.9986 40.35V47H47.1486V44.53L47.5086 44.85C47.0619 45.6767 46.4919 46.2933 45.7986 46.7C45.1119 47.1 44.2653 47.3 43.2586 47.3ZM43.6286 45.59C44.2219 45.59 44.7319 45.4867 45.1586 45.28C45.5853 45.0667 45.9286 44.7967 46.1886 44.47C46.4486 44.1433 46.6186 43.8033 46.6986 43.45C46.8119 43.13 46.8753 42.77 46.8886 42.37C46.9086 41.97 46.9186 41.65 46.9186 41.41L47.5986 41.66C46.9386 41.76 46.3386 41.85 45.7986 41.93C45.2586 42.01 44.7686 42.09 44.3286 42.17C43.8953 42.2433 43.5086 42.3333 43.1686 42.44C42.8819 42.54 42.6253 42.66 42.3986 42.8C42.1786 42.94 42.0019 43.11 41.8686 43.31C41.7419 43.51 41.6786 43.7533 41.6786 44.04C41.6786 44.32 41.7486 44.58 41.8886 44.82C42.0286 45.0533 42.2419 45.24 42.5286 45.38C42.8153 45.52 43.1819 45.59 43.6286 45.59ZM55.8853 47.3C54.8786 47.3 54.0086 47.05 53.2753 46.55C52.5486 46.05 51.9853 45.37 51.5853 44.51C51.192 43.6433 50.9953 42.67 50.9953 41.59C50.9953 40.5033 51.1953 39.5333 51.5953 38.68C51.9953 37.82 52.562 37.1433 53.2953 36.65C54.0353 36.15 54.912 35.9 55.9253 35.9C56.9453 35.9 57.802 36.15 58.4953 36.65C59.1953 37.1433 59.722 37.82 60.0753 38.68C60.4353 39.54 60.6153 40.51 60.6153 41.59C60.6153 42.67 60.4353 43.64 60.0753 44.5C59.7153 45.36 59.1853 46.0433 58.4853 46.55C57.7853 47.05 56.9186 47.3 55.8853 47.3ZM56.1753 45.41C56.862 45.41 57.422 45.2467 57.8553 44.92C58.2886 44.5933 58.6053 44.1433 58.8053 43.57C59.0053 42.9967 59.1053 42.3367 59.1053 41.59C59.1053 40.8433 59.002 40.1833 58.7953 39.61C58.5953 39.0367 58.282 38.59 57.8553 38.27C57.4353 37.95 56.8986 37.79 56.2453 37.79C55.552 37.79 54.982 37.96 54.5353 38.3C54.0886 38.64 53.7553 39.0967 53.5353 39.67C53.322 40.2433 53.2153 40.8833 53.2153 41.59C53.2153 42.3033 53.322 42.95 53.5353 43.53C53.7553 44.1033 54.082 44.56 54.5153 44.9C54.9553 45.24 55.5086 45.41 56.1753 45.41ZM59.1053 47V39.23H58.8653V32.6H60.9653V47H59.1053ZM68.4533 47.3C67.3733 47.3 66.4366 47.0567 65.6433 46.57C64.8499 46.0833 64.2366 45.4133 63.8033 44.56C63.3766 43.7 63.1633 42.71 63.1633 41.59C63.1633 40.4633 63.3833 39.4733 63.8233 38.62C64.2633 37.76 64.8799 37.0933 65.6733 36.62C66.4666 36.14 67.3933 35.9 68.4533 35.9C69.5333 35.9 70.4699 36.1433 71.2633 36.63C72.0566 37.1167 72.6699 37.7867 73.1033 38.64C73.5366 39.4933 73.7533 40.4767 73.7533 41.59C73.7533 42.7167 73.5333 43.71 73.0933 44.57C72.6599 45.4233 72.0466 46.0933 71.2533 46.58C70.4599 47.06 69.5266 47.3 68.4533 47.3ZM68.4533 45.33C69.4866 45.33 70.2566 44.9833 70.7633 44.29C71.2766 43.59 71.5333 42.69 71.5333 41.59C71.5333 40.4633 71.2733 39.5633 70.7533 38.89C70.2399 38.21 69.4733 37.87 68.4533 37.87C67.7533 37.87 67.1766 38.03 66.7233 38.35C66.2699 38.6633 65.9333 39.1 65.7133 39.66C65.4933 40.2133 65.3833 40.8567 65.3833 41.59C65.3833 42.7233 65.6433 43.63 66.1633 44.31C66.6833 44.99 67.4466 45.33 68.4533 45.33ZM79.8855 47.29C78.5721 47.29 77.5021 47 76.6755 46.42C75.8488 45.84 75.3421 45.0233 75.1555 43.97L77.2955 43.64C77.4288 44.2 77.7355 44.6433 78.2155 44.97C78.7021 45.29 79.3055 45.45 80.0255 45.45C80.6788 45.45 81.1888 45.3167 81.5555 45.05C81.9288 44.7833 82.1155 44.4167 82.1155 43.95C82.1155 43.6767 82.0488 43.4567 81.9155 43.29C81.7888 43.1167 81.5188 42.9533 81.1055 42.8C80.6921 42.6467 80.0621 42.4567 79.2155 42.23C78.2888 41.99 77.5521 41.7333 77.0055 41.46C76.4655 41.18 76.0788 40.8567 75.8455 40.49C75.6188 40.1167 75.5055 39.6667 75.5055 39.14C75.5055 38.4867 75.6788 37.9167 76.0255 37.43C76.3721 36.9433 76.8588 36.5667 77.4855 36.3C78.1188 36.0333 78.8588 35.9 79.7055 35.9C80.5321 35.9 81.2688 36.03 81.9155 36.29C82.5621 36.55 83.0855 36.92 83.4855 37.4C83.8855 37.8733 84.1255 38.43 84.2055 39.07L82.0655 39.46C81.9921 38.94 81.7488 38.53 81.3355 38.23C80.9221 37.93 80.3855 37.7667 79.7255 37.74C79.0921 37.7133 78.5788 37.82 78.1855 38.06C77.7921 38.2933 77.5955 38.6167 77.5955 39.03C77.5955 39.27 77.6688 39.4733 77.8155 39.64C77.9688 39.8067 78.2621 39.9667 78.6955 40.12C79.1288 40.2733 79.7688 40.4567 80.6155 40.67C81.5221 40.9033 82.2421 41.1633 82.7755 41.45C83.3088 41.73 83.6888 42.0667 83.9155 42.46C84.1488 42.8467 84.2655 43.3167 84.2655 43.87C84.2655 44.9367 83.8755 45.7733 83.0955 46.38C82.3221 46.9867 81.2521 47.29 79.8855 47.29ZM94.772 47.3C93.7654 47.3 92.8954 47.05 92.162 46.55C91.4354 46.05 90.872 45.37 90.472 44.51C90.0787 43.6433 89.882 42.67 89.882 41.59C89.882 40.5033 90.082 39.5333 90.482 38.68C90.882 37.82 91.4487 37.1433 92.182 36.65C92.922 36.15 93.7987 35.9 94.812 35.9C95.832 35.9 96.6887 36.15 97.382 36.65C98.082 37.1433 98.6087 37.82 98.962 38.68C99.322 39.54 99.502 40.51 99.502 41.59C99.502 42.67 99.322 43.64 98.962 44.5C98.602 45.36 98.072 46.0433 97.372 46.55C96.672 47.05 95.8054 47.3 94.772 47.3ZM95.062 45.41C95.7487 45.41 96.3087 45.2467 96.742 44.92C97.1754 44.5933 97.492 44.1433 97.692 43.57C97.892 42.9967 97.992 42.3367 97.992 41.59C97.992 40.8433 97.8887 40.1833 97.682 39.61C97.482 39.0367 97.1687 38.59 96.742 38.27C96.322 37.95 95.7854 37.79 95.132 37.79C94.4387 37.79 93.8687 37.96 93.422 38.3C92.9754 38.64 92.642 39.0967 92.422 39.67C92.2087 40.2433 92.102 40.8833 92.102 41.59C92.102 42.3033 92.2087 42.95 92.422 43.53C92.642 44.1033 92.9687 44.56 93.402 44.9C93.842 45.24 94.3954 45.41 95.062 45.41ZM97.992 47V39.23H97.752V32.6H99.852V47H97.992ZM107.34 47.3C106.26 47.3 105.323 47.0567 104.53 46.57C103.737 46.0833 103.123 45.4133 102.69 44.56C102.263 43.7 102.05 42.71 102.05 41.59C102.05 40.4633 102.27 39.4733 102.71 38.62C103.15 37.76 103.767 37.0933 104.56 36.62C105.353 36.14 106.28 35.9 107.34 35.9C108.42 35.9 109.357 36.1433 110.15 36.63C110.943 37.1167 111.557 37.7867 111.99 38.64C112.423 39.4933 112.64 40.4767 112.64 41.59C112.64 42.7167 112.42 43.71 111.98 44.57C111.547 45.4233 110.933 46.0933 110.14 46.58C109.347 47.06 108.413 47.3 107.34 47.3ZM107.34 45.33C108.373 45.33 109.143 44.9833 109.65 44.29C110.163 43.59 110.42 42.69 110.42 41.59C110.42 40.4633 110.16 39.5633 109.64 38.89C109.127 38.21 108.36 37.87 107.34 37.87C106.64 37.87 106.063 38.03 105.61 38.35C105.157 38.6633 104.82 39.1 104.6 39.66C104.38 40.2133 104.27 40.8567 104.27 41.59C104.27 42.7233 104.53 43.63 105.05 44.31C105.57 44.99 106.333 45.33 107.34 45.33ZM118.841 47V32.6H123.351C123.485 32.6 123.731 32.6033 124.091 32.61C124.458 32.6167 124.808 32.6433 125.141 32.69C126.268 32.83 127.215 33.2333 127.981 33.9C128.755 34.5667 129.338 35.4133 129.731 36.44C130.125 37.46 130.321 38.58 130.321 39.8C130.321 41.0267 130.125 42.1533 129.731 43.18C129.338 44.2 128.755 45.0433 127.981 45.71C127.215 46.37 126.268 46.77 125.141 46.91C124.808 46.9567 124.458 46.9833 124.091 46.99C123.731 46.9967 123.485 47 123.351 47H118.841ZM120.981 45.01H123.351C123.578 45.01 123.848 45.0033 124.161 44.99C124.475 44.9767 124.751 44.95 124.991 44.91C125.725 44.77 126.318 44.4533 126.771 43.96C127.231 43.46 127.568 42.8467 127.781 42.12C127.995 41.3933 128.101 40.62 128.101 39.8C128.101 38.9533 127.991 38.17 127.771 37.45C127.551 36.7233 127.211 36.1167 126.751 35.63C126.298 35.1367 125.711 34.8233 124.991 34.69C124.751 34.6433 124.471 34.6167 124.151 34.61C123.838 34.5967 123.571 34.59 123.351 34.59H120.981V45.01ZM137.44 47.3C136.367 47.3 135.423 47.0667 134.61 46.6C133.803 46.1267 133.173 45.47 132.72 44.63C132.273 43.7833 132.05 42.8033 132.05 41.69C132.05 40.51 132.27 39.4867 132.71 38.62C133.157 37.7533 133.777 37.0833 134.57 36.61C135.363 36.1367 136.287 35.9 137.34 35.9C138.44 35.9 139.377 36.1567 140.15 36.67C140.923 37.1767 141.5 37.9 141.88 38.84C142.267 39.78 142.42 40.8967 142.34 42.19H140.25V41.43C140.237 40.1767 139.997 39.25 139.53 38.65C139.07 38.05 138.367 37.75 137.42 37.75C136.373 37.75 135.587 38.08 135.06 38.74C134.533 39.4 134.27 40.3533 134.27 41.6C134.27 42.7867 134.533 43.7067 135.06 44.36C135.587 45.0067 136.347 45.33 137.34 45.33C137.993 45.33 138.557 45.1833 139.03 44.89C139.51 44.59 139.883 44.1633 140.15 43.61L142.2 44.26C141.78 45.2267 141.143 45.9767 140.29 46.51C139.437 47.0367 138.487 47.3 137.44 47.3ZM133.59 42.19V40.56H141.3V42.19H133.59ZM144.784 47V32.3H146.874V47H144.784ZM150.077 34.43V32.4H152.167V34.43H150.077ZM150.077 47V36.2H152.167V47H150.077ZM161.35 47C160.67 47.1333 160.003 47.19 159.35 47.17C158.696 47.15 158.113 47.0233 157.6 46.79C157.086 46.5567 156.7 46.19 156.44 45.69C156.206 45.2433 156.08 44.79 156.06 44.33C156.046 43.8633 156.04 43.3367 156.04 42.75V33.2H158.14V42.65C158.14 43.0833 158.143 43.46 158.15 43.78C158.163 44.1 158.233 44.37 158.36 44.59C158.6 45.0033 158.98 45.24 159.5 45.3C160.026 45.3533 160.643 45.33 161.35 45.23V47ZM153.97 37.88V36.2H161.35V37.88H153.97ZM167.828 47.3C166.748 47.3 165.812 47.0567 165.018 46.57C164.225 46.0833 163.612 45.4133 163.178 44.56C162.752 43.7 162.538 42.71 162.538 41.59C162.538 40.4633 162.758 39.4733 163.198 38.62C163.638 37.76 164.255 37.0933 165.048 36.62C165.842 36.14 166.768 35.9 167.828 35.9C168.908 35.9 169.845 36.1433 170.638 36.63C171.432 37.1167 172.045 37.7867 172.478 38.64C172.912 39.4933 173.128 40.4767 173.128 41.59C173.128 42.7167 172.908 43.71 172.468 44.57C172.035 45.4233 171.422 46.0933 170.628 46.58C169.835 47.06 168.902 47.3 167.828 47.3ZM167.828 45.33C168.862 45.33 169.632 44.9833 170.138 44.29C170.652 43.59 170.908 42.69 170.908 41.59C170.908 40.4633 170.648 39.5633 170.128 38.89C169.615 38.21 168.848 37.87 167.828 37.87C167.128 37.87 166.552 38.03 166.098 38.35C165.645 38.6633 165.308 39.1 165.088 39.66C164.868 40.2133 164.758 40.8567 164.758 41.59C164.758 42.7233 165.018 43.63 165.538 44.31C166.058 44.99 166.822 45.33 167.828 45.33Z" fill="#002046"/>
<path d="M25.7585 81V72.2727H29.2017C29.8636 72.2727 30.4276 72.3991 30.8935 72.652C31.3594 72.902 31.7145 73.25 31.9588 73.696C32.206 74.1392 32.3295 74.6506 32.3295 75.2301C32.3295 75.8097 32.2045 76.321 31.9545 76.7642C31.7045 77.2074 31.3423 77.5526 30.8679 77.7997C30.3963 78.0469 29.8253 78.1705 29.1548 78.1705H26.9602V76.6918H28.8565C29.2116 76.6918 29.5043 76.6307 29.7344 76.5085C29.9673 76.3835 30.1406 76.2116 30.2543 75.9929C30.3707 75.7713 30.429 75.517 30.429 75.2301C30.429 74.9403 30.3707 74.6875 30.2543 74.4716C30.1406 74.2528 29.9673 74.0838 29.7344 73.9645C29.5014 73.8423 29.206 73.7812 28.848 73.7812H27.6037V81H25.7585ZM34.1281 81V72.2727H40.0087V73.794H35.9732V75.8736H39.7062V77.3949H35.9732V79.4787H40.0258V81H34.1281ZM49.3754 72.2727V81H47.7817L43.9848 75.5071H43.9209V81H42.0757V72.2727H43.695L47.4621 77.7614H47.5388V72.2727H49.3754ZM53.0042 81H51.0269L54.0397 72.2727H56.4175L59.4261 81H57.4488L55.2627 74.267H55.1945L53.0042 81ZM52.8806 77.5696H57.5511V79.0099H52.8806V77.5696ZM64.4538 72.2727H66.7294L69.1328 78.1364H69.2351L71.6385 72.2727H73.9141V81H72.1243V75.3196H72.0518L69.7933 80.9574H68.5746L66.3161 75.2983H66.2436V81H64.4538V72.2727ZM77.8795 72.2727V81H76.0343V72.2727H77.8795ZM76.3113 71.429L77.2147 69.4901H78.8937L77.594 71.429H76.3113ZM87.2973 72.2727V81H85.7036L81.9067 75.5071H81.8428V81H79.9976V72.2727H81.6169L85.3839 77.7614H85.4607V72.2727H87.2973ZM91.267 72.2727V81H89.4218V72.2727H91.267ZM93.3851 72.2727H95.6607L98.0641 78.1364H98.1663L100.57 72.2727H102.845V81H101.056V75.3196H100.983L98.7246 80.9574H97.5058L95.2473 75.2983H95.1749V81H93.3851V72.2727ZM106.47 81H104.493L107.505 72.2727H109.883L112.892 81H110.914L108.728 74.267H108.66L106.47 81ZM106.346 77.5696H111.017V79.0099H106.346V77.5696ZM118.286 76.6364C118.286 75.5795 118.427 74.6065 118.708 73.7173C118.992 72.8281 119.425 72.0043 120.008 71.2457H121.742C121.52 71.527 121.314 71.8707 121.124 72.277C120.934 72.6804 120.767 73.1236 120.625 73.6065C120.483 74.0895 120.373 74.5895 120.293 75.1065C120.213 75.6207 120.174 76.1307 120.174 76.6364C120.174 77.3097 120.242 77.9901 120.378 78.6776C120.517 79.3622 120.705 79.9986 120.941 80.5866C121.179 81.1747 121.446 81.6562 121.742 82.0312H120.008C119.425 81.2727 118.992 80.4489 118.708 79.5597C118.427 78.6705 118.286 77.696 118.286 76.6364ZM124.934 81H122.957L125.969 72.2727H128.347L131.356 81H129.378L127.192 74.267H127.124L124.934 81ZM124.81 77.5696H129.481V79.0099H124.81V77.5696ZM140.306 72.2727V81H138.712L134.915 75.5071H134.851V81H133.006V72.2727H134.625L138.393 77.7614H138.469V72.2727H140.306ZM150.45 76.6364C150.45 77.5881 150.27 78.3977 149.909 79.0653C149.551 79.733 149.063 80.2429 148.443 80.5952C147.827 80.9446 147.134 81.1193 146.364 81.1193C145.588 81.1193 144.892 80.9432 144.276 80.5909C143.659 80.2386 143.172 79.7287 142.814 79.0611C142.456 78.3935 142.277 77.5852 142.277 76.6364C142.277 75.6847 142.456 74.875 142.814 74.2074C143.172 73.5398 143.659 73.0312 144.276 72.6818C144.892 72.3295 145.588 72.1534 146.364 72.1534C147.134 72.1534 147.827 72.3295 148.443 72.6818C149.063 73.0312 149.551 73.5398 149.909 74.2074C150.27 74.875 150.45 75.6847 150.45 76.6364ZM148.58 76.6364C148.58 76.0199 148.487 75.5 148.303 75.0767C148.121 74.6534 147.864 74.3324 147.531 74.1136C147.199 73.8949 146.81 73.7855 146.364 73.7855C145.918 73.7855 145.528 73.8949 145.196 74.1136C144.864 74.3324 144.605 74.6534 144.42 75.0767C144.239 75.5 144.148 76.0199 144.148 76.6364C144.148 77.2528 144.239 77.7727 144.42 78.196C144.605 78.6193 144.864 78.9403 145.196 79.1591C145.528 79.3778 145.918 79.4872 146.364 79.4872C146.81 79.4872 147.199 79.3778 147.531 79.1591C147.864 78.9403 148.121 78.6193 148.303 78.196C148.487 77.7727 148.58 77.2528 148.58 76.6364ZM157.151 74.7827C157.117 74.4389 156.971 74.1719 156.713 73.9815C156.454 73.7912 156.103 73.696 155.66 73.696C155.359 73.696 155.105 73.7386 154.897 73.8239C154.69 73.9062 154.531 74.0213 154.42 74.169C154.312 74.3168 154.258 74.4844 154.258 74.6719C154.252 74.8281 154.285 74.9645 154.356 75.081C154.43 75.1974 154.531 75.2983 154.659 75.3835C154.786 75.4659 154.934 75.5384 155.102 75.6009C155.269 75.6605 155.448 75.7116 155.639 75.7543L156.423 75.9418C156.803 76.027 157.153 76.1406 157.471 76.2827C157.789 76.4247 158.065 76.5994 158.298 76.8068C158.531 77.0142 158.711 77.2585 158.839 77.5398C158.97 77.821 159.036 78.1435 159.039 78.5071C159.036 79.0412 158.9 79.5043 158.63 79.8963C158.363 80.2855 157.977 80.5881 157.471 80.804C156.968 81.017 156.362 81.1236 155.651 81.1236C154.947 81.1236 154.333 81.0156 153.811 80.7997C153.291 80.5838 152.884 80.2642 152.592 79.8409C152.302 79.4148 152.15 78.8878 152.136 78.2599H153.921C153.941 78.5526 154.025 78.7969 154.173 78.9929C154.323 79.1861 154.524 79.3324 154.774 79.4318C155.026 79.5284 155.312 79.5767 155.63 79.5767C155.943 79.5767 156.214 79.5312 156.444 79.4403C156.677 79.3494 156.857 79.223 156.985 79.0611C157.113 78.8991 157.177 78.7131 157.177 78.5028C157.177 78.3068 157.119 78.142 157.002 78.0085C156.889 77.875 156.721 77.7614 156.5 77.6676C156.281 77.5739 156.012 77.4886 155.694 77.4119L154.744 77.1733C154.008 76.9943 153.427 76.7145 153.001 76.3338C152.575 75.9531 152.363 75.4403 152.366 74.7955C152.363 74.267 152.504 73.8054 152.788 73.4105C153.075 73.0156 153.468 72.7074 153.968 72.4858C154.468 72.2642 155.036 72.1534 155.673 72.1534C156.321 72.1534 156.886 72.2642 157.369 72.4858C157.855 72.7074 158.232 73.0156 158.502 73.4105C158.772 73.8054 158.911 74.2628 158.92 74.7827H157.151ZM163.906 76.6364C163.906 77.696 163.764 78.6705 163.48 79.5597C163.199 80.4489 162.767 81.2727 162.184 82.0312H160.45C160.672 81.75 160.878 81.4062 161.068 81C161.258 80.5938 161.424 80.1506 161.566 79.6705C161.709 79.1875 161.819 78.6875 161.899 78.1705C161.978 77.6534 162.018 77.142 162.018 76.6364C162.018 75.9631 161.949 75.2841 161.809 74.5994C161.673 73.9119 161.486 73.2756 161.247 72.6903C161.011 72.1023 160.745 71.6207 160.45 71.2457H162.184C162.767 72.0043 163.199 72.8281 163.48 73.7173C163.764 74.6065 163.906 75.5795 163.906 76.6364Z" fill="#44474E"/>
<rect x="25.5" y="89.5" width="307" height="53" rx="3.5" fill="#F8F9FA"/>
<rect x="25.5" y="89.5" width="307" height="53" rx="3.5" stroke="#C4C6CF"/>
<g clip-path="url(#clip0_6_59)">
<path d="M46.4347 121.139C46.017 121.133 45.5994 121.053 45.1818 120.901C44.7642 120.748 44.383 120.491 44.0384 120.13C43.6937 119.765 43.4169 119.273 43.2081 118.653C42.9993 118.03 42.8949 117.248 42.8949 116.307C42.8949 115.405 42.9794 114.607 43.1484 113.911C43.3175 113.211 43.5627 112.623 43.8842 112.146C44.2057 111.665 44.5935 111.3 45.0476 111.052C45.505 110.803 46.0204 110.679 46.5938 110.679C47.1638 110.679 47.6709 110.793 48.1151 111.022C48.5625 111.247 48.9271 111.562 49.2088 111.967C49.4905 112.371 49.6728 112.837 49.7557 113.364H48.5426C48.4299 112.906 48.2112 112.527 47.8864 112.225C47.5616 111.924 47.1307 111.773 46.5938 111.773C45.8049 111.773 45.1835 112.116 44.7294 112.802C44.2786 113.488 44.0516 114.451 44.0483 115.69H44.1278C44.3134 115.409 44.5339 115.168 44.7891 114.969C45.0476 114.767 45.3326 114.612 45.6442 114.502C45.9557 114.393 46.2855 114.338 46.6335 114.338C47.2169 114.338 47.7505 114.484 48.2344 114.776C48.7183 115.064 49.1061 115.463 49.3977 115.974C49.6894 116.481 49.8352 117.062 49.8352 117.719C49.8352 118.348 49.6944 118.925 49.4126 119.449C49.1309 119.969 48.7348 120.384 48.2244 120.692C47.7173 120.997 47.1207 121.146 46.4347 121.139ZM46.4347 120.045C46.8523 120.045 47.2268 119.941 47.5582 119.732C47.893 119.523 48.1565 119.243 48.3487 118.892C48.5443 118.541 48.642 118.15 48.642 117.719C48.642 117.298 48.5476 116.915 48.3587 116.57C48.1731 116.222 47.9162 115.946 47.5881 115.74C47.2633 115.535 46.892 115.432 46.4744 115.432C46.1596 115.432 45.8662 115.495 45.5945 115.621C45.3227 115.743 45.084 115.912 44.8786 116.128C44.6764 116.343 44.5173 116.59 44.4013 116.869C44.2853 117.144 44.2273 117.434 44.2273 117.739C44.2273 118.143 44.3217 118.521 44.5107 118.872C44.7029 119.223 44.9647 119.507 45.2962 119.722C45.6309 119.938 46.0104 120.045 46.4347 120.045Z" fill="#191C1D"/>
</g>
<path d="M25.7585 171V162.273H29.2017C29.8636 162.273 30.4276 162.399 30.8935 162.652C31.3594 162.902 31.7145 163.25 31.9588 163.696C32.206 164.139 32.3295 164.651 32.3295 165.23C32.3295 165.81 32.2045 166.321 31.9545 166.764C31.7045 167.207 31.3423 167.553 30.8679 167.8C30.3963 168.047 29.8253 168.17 29.1548 168.17H26.9602V166.692H28.8565C29.2116 166.692 29.5043 166.631 29.7344 166.509C29.9673 166.384 30.1406 166.212 30.2543 165.993C30.3707 165.771 30.429 165.517 30.429 165.23C30.429 164.94 30.3707 164.687 30.2543 164.472C30.1406 164.253 29.9673 164.084 29.7344 163.964C29.5014 163.842 29.206 163.781 28.848 163.781H27.6037V171H25.7585ZM34.1281 171V162.273H40.0087V163.794H35.9732V165.874H39.7062V167.395H35.9732V169.479H40.0258V171H34.1281ZM49.3754 162.273V171H47.7817L43.9848 165.507H43.9209V171H42.0757V162.273H43.695L47.4621 167.761H47.5388V162.273H49.3754ZM53.0042 171H51.0269L54.0397 162.273H56.4175L59.4261 171H57.4488L55.2627 164.267H55.1945L53.0042 171ZM52.8806 167.57H57.5511V169.01H52.8806V167.57ZM64.4538 162.273H66.7294L69.1328 168.136H69.2351L71.6385 162.273H73.9141V171H72.1243V165.32H72.0518L69.7933 170.957H68.5746L66.3161 165.298H66.2436V171H64.4538V162.273ZM77.5386 171H75.5613L78.5741 162.273H80.9519L83.9604 171H81.9832L79.7971 164.267H79.7289L77.5386 171ZM77.415 167.57H82.0854V169.01H77.415V167.57ZM79.111 161.429L80.0144 159.49H81.6934L80.3937 161.429H79.111ZM87.341 162.273L89.1009 165.247H89.1691L90.9376 162.273H93.0214L90.358 166.636L93.081 171H90.9589L89.1691 168.021H89.1009L87.3112 171H85.1975L87.929 166.636L85.2487 162.273H87.341ZM96.6342 162.273V171H94.789V162.273H96.6342ZM98.7523 162.273H101.028L103.431 168.136H103.534L105.937 162.273H108.213V171H106.423V165.32H106.35L104.092 170.957H102.873L100.614 165.298H100.542V171H98.7523V162.273ZM111.837 171H109.86L112.873 162.273H115.25L118.259 171H116.282L114.096 164.267H114.027L111.837 171ZM111.713 167.57H116.384V169.01H111.713V167.57ZM123.653 166.636C123.653 165.58 123.794 164.607 124.075 163.717C124.359 162.828 124.792 162.004 125.375 161.246H127.109C126.887 161.527 126.682 161.871 126.491 162.277C126.301 162.68 126.135 163.124 125.993 163.607C125.851 164.089 125.74 164.589 125.66 165.107C125.581 165.621 125.541 166.131 125.541 166.636C125.541 167.31 125.609 167.99 125.745 168.678C125.885 169.362 126.072 169.999 126.308 170.587C126.547 171.175 126.814 171.656 127.109 172.031H125.375C124.792 171.273 124.359 170.449 124.075 169.56C123.794 168.67 123.653 167.696 123.653 166.636ZM130.301 171H128.324L131.337 162.273H133.714L136.723 171H134.746L132.56 164.267H132.491L130.301 171ZM130.177 167.57H134.848V169.01H130.177V167.57ZM145.673 162.273V171H144.079L140.282 165.507H140.219V171H138.373V162.273H139.993L143.76 167.761H143.836V162.273H145.673ZM155.817 166.636C155.817 167.588 155.637 168.398 155.276 169.065C154.918 169.733 154.43 170.243 153.81 170.595C153.194 170.945 152.501 171.119 151.731 171.119C150.955 171.119 150.259 170.943 149.643 170.591C149.026 170.239 148.539 169.729 148.181 169.061C147.823 168.393 147.644 167.585 147.644 166.636C147.644 165.685 147.823 164.875 148.181 164.207C148.539 163.54 149.026 163.031 149.643 162.682C150.259 162.33 150.955 162.153 151.731 162.153C152.501 162.153 153.194 162.33 153.81 162.682C154.43 163.031 154.918 163.54 155.276 164.207C155.637 164.875 155.817 165.685 155.817 166.636ZM153.947 166.636C153.947 166.02 153.854 165.5 153.67 165.077C153.488 164.653 153.231 164.332 152.898 164.114C152.566 163.895 152.177 163.786 151.731 163.786C151.285 163.786 150.896 163.895 150.563 164.114C150.231 164.332 149.972 164.653 149.788 165.077C149.606 165.5 149.515 166.02 149.515 166.636C149.515 167.253 149.606 167.773 149.788 168.196C149.972 168.619 150.231 168.94 150.563 169.159C150.896 169.378 151.285 169.487 151.731 169.487C152.177 169.487 152.566 169.378 152.898 169.159C153.231 168.94 153.488 168.619 153.67 168.196C153.854 167.773 153.947 167.253 153.947 166.636ZM162.519 164.783C162.485 164.439 162.338 164.172 162.08 163.982C161.821 163.791 161.47 163.696 161.027 163.696C160.726 163.696 160.472 163.739 160.264 163.824C160.057 163.906 159.898 164.021 159.787 164.169C159.679 164.317 159.625 164.484 159.625 164.672C159.62 164.828 159.652 164.964 159.723 165.081C159.797 165.197 159.898 165.298 160.026 165.384C160.154 165.466 160.301 165.538 160.469 165.601C160.637 165.661 160.816 165.712 161.006 165.754L161.79 165.942C162.171 166.027 162.52 166.141 162.838 166.283C163.156 166.425 163.432 166.599 163.665 166.807C163.898 167.014 164.078 167.259 164.206 167.54C164.337 167.821 164.404 168.143 164.406 168.507C164.404 169.041 164.267 169.504 163.997 169.896C163.73 170.286 163.344 170.588 162.838 170.804C162.335 171.017 161.729 171.124 161.019 171.124C160.314 171.124 159.701 171.016 159.178 170.8C158.658 170.584 158.252 170.264 157.959 169.841C157.669 169.415 157.517 168.888 157.503 168.26H159.289C159.308 168.553 159.392 168.797 159.54 168.993C159.691 169.186 159.891 169.332 160.141 169.432C160.394 169.528 160.679 169.577 160.997 169.577C161.31 169.577 161.581 169.531 161.811 169.44C162.044 169.349 162.225 169.223 162.352 169.061C162.48 168.899 162.544 168.713 162.544 168.503C162.544 168.307 162.486 168.142 162.37 168.009C162.256 167.875 162.088 167.761 161.867 167.668C161.648 167.574 161.379 167.489 161.061 167.412L160.111 167.173C159.375 166.994 158.794 166.714 158.368 166.334C157.942 165.953 157.73 165.44 157.733 164.795C157.73 164.267 157.871 163.805 158.155 163.411C158.442 163.016 158.835 162.707 159.335 162.486C159.835 162.264 160.404 162.153 161.04 162.153C161.688 162.153 162.253 162.264 162.736 162.486C163.222 162.707 163.6 163.016 163.87 163.411C164.139 163.805 164.279 164.263 164.287 164.783H162.519ZM169.273 166.636C169.273 167.696 169.131 168.67 168.847 169.56C168.566 170.449 168.134 171.273 167.552 172.031H165.817C166.039 171.75 166.245 171.406 166.435 171C166.625 170.594 166.792 170.151 166.934 169.67C167.076 169.187 167.187 168.687 167.266 168.17C167.346 167.653 167.385 167.142 167.385 166.636C167.385 165.963 167.316 165.284 167.177 164.599C167.04 163.912 166.853 163.276 166.614 162.69C166.378 162.102 166.113 161.621 165.817 161.246H167.552C168.134 162.004 168.566 162.828 168.847 163.717C169.131 164.607 169.273 165.58 169.273 166.636Z" fill="#44474E"/>
<rect x="25.5" y="179.5" width="307" height="53" rx="3.5" fill="#F8F9FA"/>
<rect x="25.5" y="179.5" width="307" height="53" rx="3.5" stroke="#C4C6CF"/>
<g clip-path="url(#clip1_6_59)">
<path d="M43.054 211V210.105L46.4148 206.426C46.8092 205.995 47.134 205.621 47.3892 205.303C47.6444 204.981 47.8333 204.679 47.956 204.398C48.0819 204.113 48.1449 203.814 48.1449 203.503C48.1449 203.145 48.0587 202.835 47.8864 202.573C47.7173 202.311 47.4853 202.109 47.1903 201.967C46.8954 201.824 46.5639 201.753 46.196 201.753C45.8049 201.753 45.4635 201.834 45.1719 201.996C44.8835 202.156 44.6598 202.379 44.5007 202.668C44.3449 202.956 44.267 203.294 44.267 203.682H43.0938C43.0938 203.085 43.2313 202.562 43.5064 202.111C43.7815 201.66 44.156 201.309 44.63 201.057C45.1072 200.805 45.6425 200.679 46.2358 200.679C46.8324 200.679 47.361 200.805 47.8217 201.057C48.2824 201.309 48.6437 201.648 48.9055 202.076C49.1674 202.504 49.2983 202.979 49.2983 203.503C49.2983 203.877 49.2304 204.244 49.0945 204.602C48.9619 204.956 48.7299 205.352 48.3984 205.79C48.0703 206.224 47.6146 206.754 47.0312 207.381L44.7443 209.827V209.906H49.4773V211H43.054ZM54.8516 211.139C54.1025 211.139 53.4645 210.935 52.9375 210.528C52.4105 210.117 52.0078 209.522 51.7294 208.743C51.451 207.961 51.3118 207.016 51.3118 205.909C51.3118 204.809 51.451 203.869 51.7294 203.09C52.0111 202.308 52.4155 201.711 52.9425 201.3C53.4728 200.886 54.1091 200.679 54.8516 200.679C55.594 200.679 56.2287 200.886 56.7557 201.3C57.286 201.711 57.6903 202.308 57.9688 203.09C58.2505 203.869 58.3913 204.809 58.3913 205.909C58.3913 207.016 58.2521 207.961 57.9737 208.743C57.6953 209.522 57.2926 210.117 56.7656 210.528C56.2386 210.935 55.6006 211.139 54.8516 211.139ZM54.8516 210.045C55.594 210.045 56.1707 209.687 56.5817 208.972C56.9927 208.256 57.1982 207.235 57.1982 205.909C57.1982 205.027 57.1037 204.277 56.9148 203.657C56.7292 203.037 56.4607 202.565 56.1094 202.24C55.7614 201.915 55.3421 201.753 54.8516 201.753C54.1158 201.753 53.5407 202.116 53.1264 202.842C52.7121 203.564 52.505 204.587 52.505 205.909C52.505 206.791 52.5978 207.54 52.7834 208.156C52.969 208.773 53.2358 209.242 53.5838 209.563C53.9351 209.885 54.3577 210.045 54.8516 210.045Z" fill="#191C1D"/>
</g>
<mask id="path-9-inside-1_6_59" fill="white">
<path d="M25 249H333V322H25V249Z"/>
</mask>
<path d="M25 249V250H333V249V248H25V249Z" fill="#C4C6CF" mask="url(#path-9-inside-1_6_59)"/>
<path d="M27.2756 269.273V278H25.9588V269.273H27.2756ZM36.2372 269.273V278H35.027L30.5909 271.599H30.5099V278H29.1932V269.273H30.4119L34.8523 275.682H34.9332V269.273H36.2372ZM37.7276 270.406V269.273H44.4819V270.406H41.7589V278H40.4464V270.406H37.7276ZM45.9744 278V269.273H51.446V270.406H47.2912V273.065H51.1605V274.195H47.2912V276.866H51.4972V278H45.9744ZM53.2049 278V269.273H56.3157C56.9918 269.273 57.5529 269.389 57.9989 269.622C58.4478 269.855 58.783 270.178 59.0046 270.589C59.2262 270.999 59.337 271.472 59.337 272.009C59.337 272.543 59.2248 273.013 59.0004 273.419C58.7788 273.822 58.4435 274.136 57.9947 274.361C57.5487 274.585 56.9876 274.697 56.3114 274.697H53.9549V273.564H56.1921C56.6183 273.564 56.9648 273.503 57.2319 273.381C57.5018 273.259 57.6992 273.081 57.8242 272.848C57.9492 272.615 58.0117 272.335 58.0117 272.009C58.0117 271.679 57.9478 271.393 57.82 271.152C57.695 270.911 57.4975 270.726 57.2276 270.598C56.9606 270.467 56.6097 270.402 56.1751 270.402H54.5217V278H53.2049ZM57.5131 274.062L59.6694 278H58.1694L56.0558 274.062H57.5131ZM61.4911 269.273L63.9201 276.381H64.0181L66.4471 269.273H67.8704L64.7298 278H63.2085L60.0678 269.273H61.4911ZM68.9773 278H67.5795L70.7202 269.273H72.2415L75.3821 278H73.9844L71.517 270.858H71.4489L68.9773 278ZM69.2116 274.582H73.7457V275.69H69.2116V274.582ZM76.6424 278V269.273H77.9592V276.866H81.9137V278H76.6424ZM90.657 273.636C90.657 274.568 90.4865 275.369 90.1456 276.04C89.8047 276.707 89.3374 277.222 88.7436 277.582C88.1527 277.94 87.4808 278.119 86.728 278.119C85.9723 278.119 85.2976 277.94 84.7038 277.582C84.1129 277.222 83.647 276.706 83.3061 276.036C82.9652 275.365 82.7947 274.565 82.7947 273.636C82.7947 272.705 82.9652 271.905 83.3061 271.237C83.647 270.567 84.1129 270.053 84.7038 269.695C85.2976 269.334 85.9723 269.153 86.728 269.153C87.4808 269.153 88.1527 269.334 88.7436 269.695C89.3374 270.053 89.8047 270.567 90.1456 271.237C90.4865 271.905 90.657 272.705 90.657 273.636ZM89.353 273.636C89.353 272.926 89.2379 272.328 89.0078 271.842C88.7805 271.354 88.468 270.984 88.0703 270.734C87.6754 270.482 87.228 270.355 86.728 270.355C86.2251 270.355 85.7763 270.482 85.3814 270.734C84.9865 270.984 84.674 271.354 84.4439 271.842C84.2166 272.328 84.103 272.926 84.103 273.636C84.103 274.347 84.2166 274.946 84.4439 275.435C84.674 275.92 84.9865 276.29 85.3814 276.543C85.7763 276.793 86.2251 276.918 86.728 276.918C87.228 276.918 87.6754 276.793 88.0703 276.543C88.468 276.29 88.7805 275.92 89.0078 275.435C89.2379 274.946 89.353 274.347 89.353 273.636ZM98.2997 278H95.4744V269.273H98.3892C99.2443 269.273 99.9787 269.447 100.592 269.797C101.206 270.143 101.676 270.642 102.003 271.293C102.332 271.94 102.497 272.717 102.497 273.624C102.497 274.533 102.331 275.314 101.999 275.967C101.669 276.621 101.192 277.124 100.567 277.476C99.9418 277.825 99.1861 278 98.2997 278ZM96.7912 276.849H98.2273C98.892 276.849 99.4446 276.724 99.8849 276.474C100.325 276.222 100.655 275.857 100.874 275.379C101.092 274.899 101.202 274.314 101.202 273.624C101.202 272.939 101.092 272.358 100.874 271.881C100.658 271.403 100.335 271.041 99.9062 270.794C99.4773 270.547 98.9446 270.423 98.3082 270.423H96.7912V276.849ZM104.135 278V269.273H109.606V270.406H105.451V273.065H109.321V274.195H105.451V276.866H109.657V278H104.135ZM114.541 278V269.273H117.652C118.331 269.273 118.893 269.396 119.339 269.643C119.785 269.891 120.119 270.229 120.341 270.658C120.562 271.084 120.673 271.564 120.673 272.098C120.673 272.635 120.561 273.118 120.336 273.547C120.115 273.973 119.779 274.311 119.331 274.561C118.885 274.808 118.324 274.932 117.647 274.932H115.508V273.815H117.528C117.957 273.815 118.305 273.741 118.572 273.594C118.839 273.443 119.035 273.239 119.16 272.98C119.285 272.722 119.348 272.428 119.348 272.098C119.348 271.768 119.285 271.476 119.16 271.22C119.035 270.964 118.838 270.764 118.568 270.619C118.301 270.474 117.949 270.402 117.511 270.402H115.858V278H114.541ZM122.217 278V269.273H127.688V270.406H123.533V273.065H127.403V274.195H123.533V276.866H127.739V278H122.217ZM136.491 269.273V278H135.281L130.845 271.599H130.764V278H129.447V269.273H130.666L135.106 275.682H135.187V269.273H136.491ZM139.149 278H137.751L140.892 269.273H142.413L145.554 278H144.156L141.689 270.858H141.621L139.149 278ZM139.384 274.582H143.918V275.69H139.384V274.582ZM147.551 276.918C147.319 276.918 147.118 276.835 146.951 276.67C146.783 276.503 146.699 276.301 146.699 276.065C146.699 275.832 146.783 275.634 146.951 275.469C147.118 275.301 147.319 275.217 147.551 275.217C147.784 275.217 147.985 275.301 148.152 275.469C148.32 275.634 148.404 275.832 148.404 276.065C148.404 276.222 148.364 276.365 148.284 276.496C148.208 276.624 148.105 276.726 147.978 276.803C147.85 276.879 147.708 276.918 147.551 276.918ZM147.551 272.545C147.319 272.545 147.118 272.463 146.951 272.298C146.783 272.131 146.699 271.929 146.699 271.693C146.699 271.46 146.783 271.261 146.951 271.097C147.118 270.929 147.319 270.845 147.551 270.845C147.784 270.845 147.985 270.929 148.152 271.097C148.32 271.261 148.404 271.46 148.404 271.693C148.404 271.849 148.364 271.993 148.284 272.124C148.208 272.251 148.105 272.354 147.978 272.43C147.85 272.507 147.708 272.545 147.551 272.545Z" fill="#44474E"/>
<path d="M29.692 315V300.48L26.44 302.46V299.664L29.692 297.72H32.248V315H29.692ZM44.125 315V311.988H36.325V309.612L41.941 297.72H44.809L39.193 309.612H44.125V304.932H46.669V309.612H48.385V311.988H46.669V315H44.125ZM59.7306 315.36C58.7706 315.36 57.9666 315.184 57.3186 314.832C56.6706 314.472 56.1786 314 55.8426 313.416C55.5146 312.824 55.3506 312.176 55.3506 311.472C55.3506 310.816 55.4666 310.24 55.6986 309.744C55.9306 309.248 56.2746 308.828 56.7306 308.484C57.1866 308.132 57.7466 307.848 58.4106 307.632C58.9866 307.464 59.6386 307.316 60.3666 307.188C61.0946 307.06 61.8586 306.94 62.6586 306.828C63.4666 306.716 64.2666 306.604 65.0586 306.492L64.1466 306.996C64.1626 305.98 63.9466 305.228 63.4986 304.74C63.0586 304.244 62.2986 303.996 61.2186 303.996C60.5386 303.996 59.9146 304.156 59.3466 304.476C58.7786 304.788 58.3826 305.308 58.1586 306.036L55.8186 305.316C56.1386 304.204 56.7466 303.32 57.6426 302.664C58.5466 302.008 59.7466 301.68 61.2426 301.68C62.4026 301.68 63.4106 301.88 64.2666 302.28C65.1306 302.672 65.7626 303.296 66.1626 304.152C66.3706 304.576 66.4986 305.024 66.5466 305.496C66.5946 305.968 66.6186 306.476 66.6186 307.02V315H64.3986V312.036L64.8306 312.42C64.2946 313.412 63.6106 314.152 62.7786 314.64C61.9546 315.12 60.9386 315.36 59.7306 315.36ZM60.1746 313.308C60.8866 313.308 61.4986 313.184 62.0106 312.936C62.5226 312.68 62.9346 312.356 63.2466 311.964C63.5586 311.572 63.7626 311.164 63.8586 310.74C63.9946 310.356 64.0706 309.924 64.0866 309.444C64.1106 308.964 64.1226 308.58 64.1226 308.292L64.9386 308.592C64.1466 308.712 63.4266 308.82 62.7786 308.916C62.1306 309.012 61.5426 309.108 61.0146 309.204C60.4946 309.292 60.0306 309.4 59.6226 309.528C59.2786 309.648 58.9706 309.792 58.6986 309.96C58.4346 310.128 58.2226 310.332 58.0626 310.572C57.9106 310.812 57.8346 311.104 57.8346 311.448C57.8346 311.784 57.9186 312.096 58.0866 312.384C58.2546 312.664 58.5106 312.888 58.8546 313.056C59.1986 313.224 59.6386 313.308 60.1746 313.308ZM78.8307 315V308.628C78.8307 308.124 78.7867 307.608 78.6987 307.08C78.6187 306.544 78.4587 306.048 78.2187 305.592C77.9867 305.136 77.6547 304.768 77.2227 304.488C76.7987 304.208 76.2427 304.068 75.5547 304.068C75.1067 304.068 74.6827 304.144 74.2827 304.296C73.8827 304.44 73.5307 304.676 73.2267 305.004C72.9307 305.332 72.6947 305.764 72.5187 306.3C72.3507 306.836 72.2667 307.488 72.2667 308.256L70.7067 307.668C70.7067 306.492 70.9267 305.456 71.3667 304.56C71.8067 303.656 72.4387 302.952 73.2627 302.448C74.0867 301.944 75.0827 301.692 76.2507 301.692C77.1467 301.692 77.8987 301.836 78.5067 302.124C79.1147 302.412 79.6067 302.792 79.9827 303.264C80.3667 303.728 80.6587 304.236 80.8587 304.788C81.0587 305.34 81.1947 305.88 81.2667 306.408C81.3387 306.936 81.3747 307.4 81.3747 307.8V315H78.8307ZM69.7227 315V302.04H71.9667V305.784H72.2667V315H69.7227ZM89.9643 315.36C88.6683 315.36 87.5443 315.068 86.5923 314.484C85.6403 313.9 84.9043 313.096 84.3843 312.072C83.8723 311.04 83.6163 309.852 83.6163 308.508C83.6163 307.156 83.8803 305.968 84.4083 304.944C84.9363 303.912 85.6763 303.112 86.6283 302.544C87.5803 301.968 88.6923 301.68 89.9643 301.68C91.2603 301.68 92.3843 301.972 93.3363 302.556C94.2883 303.14 95.0243 303.944 95.5443 304.968C96.0643 305.992 96.3243 307.172 96.3243 308.508C96.3243 309.86 96.0603 311.052 95.5323 312.084C95.0123 313.108 94.2763 313.912 93.3243 314.496C92.3723 315.072 91.2523 315.36 89.9643 315.36ZM89.9643 312.996C91.2043 312.996 92.1283 312.58 92.7363 311.748C93.3523 310.908 93.6603 309.828 93.6603 308.508C93.6603 307.156 93.3483 306.076 92.7243 305.268C92.1083 304.452 91.1883 304.044 89.9643 304.044C89.1243 304.044 88.4323 304.236 87.8883 304.62C87.3443 304.996 86.9403 305.52 86.6763 306.192C86.4123 306.856 86.2803 307.628 86.2803 308.508C86.2803 309.868 86.5923 310.956 87.2163 311.772C87.8403 312.588 88.7563 312.996 89.9643 312.996ZM103.683 315.348C102.107 315.348 100.823 315 99.8309 314.304C98.8389 313.608 98.2309 312.628 98.0069 311.364L100.575 310.968C100.735 311.64 101.103 312.172 101.679 312.564C102.263 312.948 102.987 313.14 103.851 313.14C104.635 313.14 105.247 312.98 105.687 312.66C106.135 312.34 106.359 311.9 106.359 311.34C106.359 311.012 106.279 310.748 106.119 310.548C105.967 310.34 105.643 310.144 105.147 309.96C104.651 309.776 103.895 309.548 102.879 309.276C101.767 308.988 100.883 308.68 100.227 308.352C99.5789 308.016 99.1149 307.628 98.8349 307.188C98.5629 306.74 98.4269 306.2 98.4269 305.568C98.4269 304.784 98.6349 304.1 99.0509 303.516C99.4669 302.932 100.051 302.48 100.803 302.16C101.563 301.84 102.451 301.68 103.467 301.68C104.459 301.68 105.343 301.836 106.119 302.148C106.895 302.46 107.523 302.904 108.003 303.48C108.483 304.048 108.771 304.716 108.867 305.484L106.299 305.952C106.211 305.328 105.919 304.836 105.423 304.476C104.927 304.116 104.283 303.92 103.491 303.888C102.731 303.856 102.115 303.984 101.643 304.272C101.171 304.552 100.935 304.94 100.935 305.436C100.935 305.724 101.023 305.968 101.199 306.168C101.383 306.368 101.735 306.56 102.255 306.744C102.775 306.928 103.543 307.148 104.559 307.404C105.647 307.684 106.511 307.996 107.151 308.34C107.791 308.676 108.247 309.08 108.519 309.552C108.799 310.016 108.939 310.58 108.939 311.244C108.939 312.524 108.471 313.528 107.535 314.256C106.607 314.984 105.323 315.348 103.683 315.348Z" fill="#002046"/>
<defs>
<clipPath id="clip0_6_59">
<rect width="259" height="20" fill="white" transform="translate(42 106)"/>
</clipPath>
<clipPath id="clip1_6_59">
<rect width="259" height="20" fill="white" transform="translate(42 196)"/>
</clipPath>
</defs>
</svg>
