<svg width="309" height="121" viewBox="0 0 309 121" fill="none" xmlns="http://www.w3.org/2000/svg">
<mask id="path-1-inside-1_6_206" fill="white">
<path d="M0 0H308V121H0V0Z"/>
</mask>
<path d="M0 0V1H308V0V-1H0V0Z" fill="#C4C6CF" mask="url(#path-1-inside-1_6_206)"/>
<rect x="0.5" y="44.5" width="118.59" height="65" rx="3.5" stroke="#002046"/>
<path d="M32.1153 71V59.3594H33.5997V69.6875H38.9903V71H32.1153ZM42.6466 59.3594V71H41.1622V59.3594H42.6466ZM45.4591 71V59.3594H47.5684L50.4356 66.7031C50.5033 66.875 50.5802 67.0898 50.6661 67.3477C50.752 67.6055 50.8432 67.8854 50.9395 68.1875C51.0359 68.4896 51.1283 68.7904 51.2169 69.0898C51.3054 69.3893 51.3835 69.6667 51.4513 69.9219H51.1231C51.196 69.6823 51.2768 69.4154 51.3653 69.1211C51.4539 68.8268 51.5463 68.5273 51.6427 68.2227C51.739 67.918 51.8315 67.6328 51.92 67.3672C52.0085 67.1016 52.0867 66.8802 52.1544 66.7031L54.9825 59.3594H57.0997V71H55.6388V64.3516C55.6388 64.112 55.6401 63.8385 55.6427 63.5312C55.6453 63.224 55.6505 62.901 55.6583 62.5625C55.6661 62.224 55.6739 61.8802 55.6817 61.5312C55.6895 61.1823 55.696 60.8438 55.7013 60.5156H55.8263C55.7169 60.875 55.601 61.2409 55.4786 61.6133C55.3562 61.9857 55.2364 62.3451 55.1192 62.6914C55.002 63.0378 54.8914 63.3542 54.7872 63.6406C54.683 63.9271 54.5945 64.1641 54.5216 64.3516L51.92 71H50.6309L47.9903 64.3516C47.9174 64.1693 47.8315 63.9388 47.7325 63.6602C47.6335 63.3815 47.5255 63.0716 47.4083 62.7305C47.2911 62.3893 47.17 62.0299 47.045 61.6523C46.92 61.2747 46.7924 60.8958 46.6622 60.5156H46.8028C46.8132 60.8073 46.8223 61.1224 46.8302 61.4609C46.838 61.7995 46.8445 62.1419 46.8497 62.4883C46.8549 62.8346 46.8601 63.168 46.8653 63.4883C46.8705 63.8086 46.8731 64.0964 46.8731 64.3516V71H45.4591ZM59.9122 71V59.3594H63.8966C64.8028 59.3594 65.5489 59.5247 66.1348 59.8555C66.7208 60.1862 67.1557 60.6302 67.4395 61.1875C67.7234 61.7448 67.8653 62.3698 67.8653 63.0625C67.8653 63.7552 67.7234 64.3828 67.4395 64.9453C67.1557 65.5078 66.7221 65.9557 66.1387 66.2891C65.5554 66.6224 64.8106 66.7891 63.9044 66.7891H61.0841V65.4844H63.8341C64.4486 65.4844 64.9434 65.3789 65.3184 65.168C65.6934 64.957 65.9656 64.668 66.1348 64.3008C66.3041 63.9336 66.3887 63.5208 66.3887 63.0625C66.3887 62.6042 66.3041 62.194 66.1348 61.832C65.9656 61.4701 65.6921 61.1849 65.3145 60.9766C64.9369 60.7682 64.4382 60.6641 63.8184 60.6641H61.3966V71H59.9122ZM67.9512 71L72.1778 59.3594H73.8966L78.1778 71H76.6153L74.1466 64.0938C73.9955 63.6667 73.8197 63.1341 73.6192 62.4961C73.4187 61.8581 73.1752 61.0443 72.8887 60.0547H73.17C72.8887 61.0547 72.6453 61.8789 72.4395 62.5273C72.2338 63.1758 72.0632 63.6979 71.9278 64.0938L69.5294 71H67.9512ZM70.0762 67.75V66.4531H76.0528V67.75H70.0762ZM79.9903 71V59.3594H83.9747C84.8809 59.3594 85.627 59.5143 86.213 59.8242C86.7989 60.1341 87.2338 60.5599 87.5177 61.1016C87.8015 61.6432 87.9434 62.2604 87.9434 62.9531C87.9434 63.6458 87.8015 64.2578 87.5177 64.7891C87.2338 65.3203 86.8002 65.7357 86.2169 66.0352C85.6335 66.3346 84.8887 66.4844 83.9825 66.4844H80.8184V65.1641H83.9122C84.5268 65.1641 85.0203 65.0742 85.3927 64.8945C85.7651 64.7148 86.0372 64.4596 86.2091 64.1289C86.3809 63.7982 86.4669 63.4062 86.4669 62.9531C86.4669 62.4896 86.3809 62.0872 86.2091 61.7461C86.0372 61.4049 85.7637 61.1393 85.3887 60.9492C85.0137 60.7591 84.5164 60.6641 83.8966 60.6641H81.4747V71H79.9903ZM86.6778 71L83.8653 65.7578H85.5372L88.3966 71H86.6778ZM31.1192 95.1562C30.1244 95.1562 29.2377 94.9154 28.4591 94.4336C27.6804 93.9518 27.0684 93.2643 26.6231 92.3711C26.1778 91.4779 25.9552 90.4167 25.9552 89.1875C25.9552 87.9531 26.1778 86.8893 26.6231 85.9961C27.0684 85.1029 27.6804 84.4141 28.4591 83.9297C29.2377 83.4453 30.1244 83.2031 31.1192 83.2031C31.7078 83.2031 32.2637 83.2891 32.7872 83.4609C33.3106 83.6328 33.7807 83.8841 34.1973 84.2148C34.614 84.5456 34.9617 84.9466 35.2403 85.418C35.519 85.8893 35.7104 86.4245 35.8145 87.0234H34.3302C34.2468 86.6224 34.1049 86.2708 33.9044 85.9688C33.7039 85.6667 33.4591 85.4115 33.17 85.2031C32.8809 84.9948 32.5619 84.8385 32.213 84.7344C31.864 84.6302 31.4994 84.5781 31.1192 84.5781C30.4213 84.5781 29.7911 84.7552 29.2286 85.1094C28.6661 85.4635 28.2208 85.9831 27.8927 86.668C27.5645 87.3529 27.4005 88.1927 27.4005 89.1875C27.4005 90.1771 27.5658 91.0143 27.8966 91.6992C28.2273 92.3841 28.6739 92.9023 29.2364 93.2539C29.7989 93.6055 30.4265 93.7812 31.1192 93.7812C31.4994 93.7812 31.864 93.7279 32.213 93.6211C32.5619 93.5143 32.8809 93.3581 33.17 93.1523C33.4591 92.9466 33.7039 92.6914 33.9044 92.3867C34.1049 92.082 34.2468 91.7318 34.3302 91.3359H35.8145C35.7156 91.9297 35.5268 92.4609 35.2481 92.9297C34.9695 93.3984 34.6218 93.7995 34.2052 94.1328C33.7885 94.4661 33.3184 94.7201 32.795 94.8945C32.2716 95.069 31.713 95.1562 31.1192 95.1562ZM36.7833 95L41.0098 83.3594H42.7286L47.0098 95H45.4473L42.9786 88.0938C42.8276 87.6667 42.6518 87.1341 42.4513 86.4961C42.2507 85.8581 42.0072 85.0443 41.7208 84.0547H42.002C41.7208 85.0547 41.4773 85.8789 41.2716 86.5273C41.0658 87.1758 40.8953 87.6979 40.7598 88.0938L38.3614 95H36.7833ZM38.9083 91.75V90.4531H44.8848V91.75H38.9083ZM48.8223 95V83.3594H50.9317L53.7989 90.7031C53.8666 90.875 53.9434 91.0898 54.0294 91.3477C54.1153 91.6055 54.2065 91.8854 54.3028 92.1875C54.3992 92.4896 54.4916 92.7904 54.5802 93.0898C54.6687 93.3893 54.7468 93.6667 54.8145 93.9219H54.4864C54.5593 93.6823 54.6401 93.4154 54.7286 93.1211C54.8171 92.8268 54.9096 92.5273 55.0059 92.2227C55.1023 91.918 55.1947 91.6328 55.2833 91.3672C55.3718 91.1016 55.4499 90.8802 55.5177 90.7031L58.3458 83.3594H60.463V95H59.002V88.3516C59.002 88.112 59.0033 87.8385 59.0059 87.5312C59.0085 87.224 59.0138 86.901 59.0216 86.5625C59.0294 86.224 59.0372 85.8802 59.045 85.5312C59.0528 85.1823 59.0593 84.8438 59.0645 84.5156H59.1895C59.0802 84.875 58.9643 85.2409 58.8419 85.6133C58.7195 85.9857 58.5997 86.3451 58.4825 86.6914C58.3653 87.0378 58.2546 87.3542 58.1505 87.6406C58.0463 87.9271 57.9578 88.1641 57.8848 88.3516L55.2833 95H53.9942L51.3536 88.3516C51.2807 88.1693 51.1947 87.9388 51.0958 87.6602C50.9968 87.3815 50.8888 87.0716 50.7716 86.7305C50.6544 86.3893 50.5333 86.0299 50.4083 85.6523C50.2833 85.2747 50.1557 84.8958 50.0255 84.5156H50.1661C50.1765 84.8073 50.1856 85.1224 50.1934 85.4609C50.2013 85.7995 50.2078 86.1419 50.213 86.4883C50.2182 86.8346 50.2234 87.168 50.2286 87.4883C50.2338 87.8086 50.2364 88.0964 50.2364 88.3516V95H48.8223ZM63.2755 95V83.3594H67.2598C68.1661 83.3594 68.9122 83.5247 69.4981 83.8555C70.0841 84.1862 70.519 84.6302 70.8028 85.1875C71.0867 85.7448 71.2286 86.3698 71.2286 87.0625C71.2286 87.7552 71.0867 88.3828 70.8028 88.9453C70.519 89.5078 70.0854 89.9557 69.502 90.2891C68.9187 90.6224 68.1739 90.7891 67.2677 90.7891H64.4473V89.4844H67.1973C67.8119 89.4844 68.3067 89.3789 68.6817 89.168C69.0567 88.957 69.3289 88.668 69.4981 88.3008C69.6674 87.9336 69.752 87.5208 69.752 87.0625C69.752 86.6042 69.6674 86.194 69.4981 85.832C69.3289 85.4701 69.0554 85.1849 68.6778 84.9766C68.3002 84.7682 67.8015 84.6641 67.1817 84.6641H64.7598V95H63.2755ZM78.213 95.1562C77.2182 95.1562 76.3315 94.9154 75.5528 94.4336C74.7742 93.9518 74.1609 93.2643 73.713 92.3711C73.2651 91.4779 73.0411 90.4167 73.0411 89.1875C73.0411 87.9531 73.2651 86.8893 73.713 85.9961C74.1609 85.1029 74.7742 84.4141 75.5528 83.9297C76.3315 83.4453 77.2182 83.2031 78.213 83.2031C79.2078 83.2031 80.0932 83.4453 80.8692 83.9297C81.6453 84.4141 82.2559 85.1029 82.7012 85.9961C83.1466 86.8893 83.3692 87.9531 83.3692 89.1875C83.3692 90.4167 83.1466 91.4779 82.7012 92.3711C82.2559 93.2643 81.6453 93.9518 80.8692 94.4336C80.0932 94.9154 79.2078 95.1562 78.213 95.1562ZM78.213 93.7812C78.9057 93.7812 79.532 93.6055 80.0919 93.2539C80.6518 92.9023 81.0971 92.3841 81.4278 91.6992C81.7585 91.0143 81.9239 90.1771 81.9239 89.1875C81.9239 88.1875 81.7585 87.3451 81.4278 86.6602C81.0971 85.9753 80.6518 85.457 80.0919 85.1055C79.532 84.7539 78.9057 84.5781 78.213 84.5781C77.5151 84.5781 76.8848 84.7552 76.3223 85.1094C75.7598 85.4635 75.3132 85.9831 74.9825 86.668C74.6518 87.3529 74.4864 88.1927 74.4864 89.1875C74.4864 90.1771 74.6518 91.013 74.9825 91.6953C75.3132 92.3776 75.7598 92.8958 76.3223 93.25C76.8848 93.6042 77.5151 93.7812 78.213 93.7812ZM89.4552 95.2031C88.6166 95.2031 87.8887 95.0677 87.2716 94.7969C86.6544 94.526 86.1713 94.1471 85.8223 93.6602C85.4734 93.1732 85.2755 92.6042 85.2286 91.9531H86.752C86.7937 92.3906 86.9421 92.7513 87.1973 93.0352C87.4526 93.319 87.7794 93.5299 88.1778 93.668C88.5762 93.806 89.002 93.875 89.4552 93.875C89.9812 93.875 90.4539 93.7891 90.8731 93.6172C91.2924 93.4453 91.6244 93.2031 91.8692 92.8906C92.114 92.5781 92.2364 92.2161 92.2364 91.8047C92.2364 91.4297 92.1309 91.125 91.92 90.8906C91.7091 90.6562 91.4291 90.4635 91.0802 90.3125C90.7312 90.1615 90.3484 90.0286 89.9317 89.9141L88.5255 89.5156C87.588 89.25 86.8588 88.8698 86.338 88.375C85.8171 87.8802 85.5567 87.2474 85.5567 86.4766C85.5567 85.8203 85.7338 85.2461 86.088 84.7539C86.4421 84.2617 86.9213 83.8802 87.5255 83.6094C88.1296 83.3385 88.8067 83.2031 89.5567 83.2031C90.3223 83.2031 90.9994 83.3385 91.588 83.6094C92.1765 83.8802 92.6414 84.2487 92.9825 84.7148C93.3236 85.181 93.5046 85.7083 93.5255 86.2969H92.0723C92.0046 85.7292 91.7338 85.2904 91.2598 84.9805C90.7859 84.6706 90.2026 84.5156 89.5098 84.5156C89.0098 84.5156 88.571 84.5977 88.1934 84.7617C87.8158 84.9258 87.5229 85.1497 87.3145 85.4336C87.1062 85.7174 87.002 86.0417 87.002 86.4062C87.002 86.8125 87.1283 87.1393 87.3809 87.3867C87.6335 87.6341 87.933 87.8268 88.2794 87.9648C88.6257 88.1029 88.9395 88.2109 89.2208 88.2891L90.3848 88.6094C90.6973 88.6927 91.0424 88.8073 91.42 88.9531C91.7976 89.099 92.1583 89.293 92.502 89.5352C92.8458 89.7773 93.1283 90.0846 93.3497 90.457C93.571 90.8294 93.6817 91.2865 93.6817 91.8281C93.6817 92.4635 93.5164 93.0365 93.1856 93.5469C92.8549 94.0573 92.3744 94.4609 91.7442 94.7578C91.114 95.0547 90.351 95.2031 89.4552 95.2031Z" fill="#002046"/>
<rect x="119.59" y="33" width="189.35" height="88" rx="4" fill="#002046"/>
<path d="M153.003 59V47.3594H156.988C157.894 47.3594 158.64 47.5247 159.226 47.8555C159.812 48.1862 160.247 48.6302 160.531 49.1875C160.814 49.7448 160.956 50.3698 160.956 51.0625C160.956 51.7552 160.814 52.3828 160.531 52.9453C160.247 53.5078 159.813 53.9557 159.23 54.2891C158.646 54.6224 157.902 54.7891 156.995 54.7891H154.175V53.4844H156.925C157.54 53.4844 158.034 53.3789 158.409 53.168C158.784 52.957 159.057 52.668 159.226 52.3008C159.395 51.9336 159.48 51.5208 159.48 51.0625C159.48 50.6042 159.395 50.194 159.226 49.832C159.057 49.4701 158.783 49.1849 158.406 48.9766C158.028 48.7682 157.529 48.6641 156.909 48.6641H154.488V59H153.003ZM163.222 59V47.3594H167.206C168.113 47.3594 168.859 47.5143 169.445 47.8242C170.031 48.1341 170.465 48.5599 170.749 49.1016C171.033 49.6432 171.175 50.2604 171.175 50.9531C171.175 51.6458 171.033 52.2578 170.749 52.7891C170.465 53.3203 170.032 53.7357 169.449 54.0352C168.865 54.3346 168.12 54.4844 167.214 54.4844H164.05V53.1641H167.144C167.758 53.1641 168.252 53.0742 168.624 52.8945C168.997 52.7148 169.269 52.4596 169.441 52.1289C169.613 51.7982 169.699 51.4062 169.699 50.9531C169.699 50.4896 169.613 50.0872 169.441 49.7461C169.269 49.4049 168.995 49.1393 168.62 48.9492C168.245 48.7591 167.748 48.6641 167.128 48.6641H164.706V59H163.222ZM169.909 59L167.097 53.7578H168.769L171.628 59H169.909ZM178.238 59.1562C177.243 59.1562 176.356 58.9154 175.577 58.4336C174.799 57.9518 174.186 57.2643 173.738 56.3711C173.29 55.4779 173.066 54.4167 173.066 53.1875C173.066 51.9531 173.29 50.8893 173.738 49.9961C174.186 49.1029 174.799 48.4141 175.577 47.9297C176.356 47.4453 177.243 47.2031 178.238 47.2031C179.232 47.2031 180.118 47.4453 180.894 47.9297C181.67 48.4141 182.281 49.1029 182.726 49.9961C183.171 50.8893 183.394 51.9531 183.394 53.1875C183.394 54.4167 183.171 55.4779 182.726 56.3711C182.281 57.2643 181.67 57.9518 180.894 58.4336C180.118 58.9154 179.232 59.1562 178.238 59.1562ZM178.238 57.7812C178.93 57.7812 179.557 57.6055 180.117 57.2539C180.676 56.9023 181.122 56.3841 181.452 55.6992C181.783 55.0143 181.949 54.1771 181.949 53.1875C181.949 52.1875 181.783 51.3451 181.452 50.6602C181.122 49.9753 180.676 49.457 180.117 49.1055C179.557 48.7539 178.93 48.5781 178.238 48.5781C177.54 48.5781 176.909 48.7552 176.347 49.1094C175.784 49.4635 175.338 49.9831 175.007 50.668C174.676 51.3529 174.511 52.1927 174.511 53.1875C174.511 54.1771 174.676 55.013 175.007 55.6953C175.338 56.3776 175.784 56.8958 176.347 57.25C176.909 57.6042 177.54 57.7812 178.238 57.7812ZM189.48 59.2031C188.641 59.2031 187.913 59.0677 187.296 58.7969C186.679 58.526 186.196 58.1471 185.847 57.6602C185.498 57.1732 185.3 56.6042 185.253 55.9531H186.777C186.818 56.3906 186.967 56.7513 187.222 57.0352C187.477 57.319 187.804 57.5299 188.202 57.668C188.601 57.806 189.027 57.875 189.48 57.875C190.006 57.875 190.479 57.7891 190.898 57.6172C191.317 57.4453 191.649 57.2031 191.894 56.8906C192.139 56.5781 192.261 56.2161 192.261 55.8047C192.261 55.4297 192.156 55.125 191.945 54.8906C191.734 54.6562 191.454 54.4635 191.105 54.3125C190.756 54.1615 190.373 54.0286 189.956 53.9141L188.55 53.5156C187.613 53.25 186.883 52.8698 186.363 52.375C185.842 51.8802 185.581 51.2474 185.581 50.4766C185.581 49.8203 185.758 49.2461 186.113 48.7539C186.467 48.2617 186.946 47.8802 187.55 47.6094C188.154 47.3385 188.831 47.2031 189.581 47.2031C190.347 47.2031 191.024 47.3385 191.613 47.6094C192.201 47.8802 192.666 48.2487 193.007 48.7148C193.348 49.181 193.529 49.7083 193.55 50.2969H192.097C192.029 49.7292 191.758 49.2904 191.284 48.9805C190.811 48.6706 190.227 48.5156 189.534 48.5156C189.034 48.5156 188.596 48.5977 188.218 48.7617C187.84 48.9258 187.548 49.1497 187.339 49.4336C187.131 49.7174 187.027 50.0417 187.027 50.4062C187.027 50.8125 187.153 51.1393 187.406 51.3867C187.658 51.6341 187.958 51.8268 188.304 51.9648C188.65 52.1029 188.964 52.2109 189.245 52.2891L190.409 52.6094C190.722 52.6927 191.067 52.8073 191.445 52.9531C191.822 53.099 192.183 53.293 192.527 53.5352C192.87 53.7773 193.153 54.0846 193.374 54.457C193.596 54.8294 193.706 55.2865 193.706 55.8281C193.706 56.4635 193.541 57.0365 193.21 57.5469C192.88 58.0573 192.399 58.4609 191.769 58.7578C191.139 59.0547 190.376 59.2031 189.48 59.2031ZM199.745 59.2031C198.907 59.2031 198.179 59.0677 197.562 58.7969C196.945 58.526 196.462 58.1471 196.113 57.6602C195.764 57.1732 195.566 56.6042 195.519 55.9531H197.042C197.084 56.3906 197.232 56.7513 197.488 57.0352C197.743 57.319 198.07 57.5299 198.468 57.668C198.867 57.806 199.292 57.875 199.745 57.875C200.271 57.875 200.744 57.7891 201.163 57.6172C201.583 57.4453 201.915 57.2031 202.159 56.8906C202.404 56.5781 202.527 56.2161 202.527 55.8047C202.527 55.4297 202.421 55.125 202.21 54.8906C201.999 54.6562 201.719 54.4635 201.37 54.3125C201.021 54.1615 200.639 54.0286 200.222 53.9141L198.816 53.5156C197.878 53.25 197.149 52.8698 196.628 52.375C196.107 51.8802 195.847 51.2474 195.847 50.4766C195.847 49.8203 196.024 49.2461 196.378 48.7539C196.732 48.2617 197.212 47.8802 197.816 47.6094C198.42 47.3385 199.097 47.2031 199.847 47.2031C200.613 47.2031 201.29 47.3385 201.878 47.6094C202.467 47.8802 202.932 48.2487 203.273 48.7148C203.614 49.181 203.795 49.7083 203.816 50.2969H202.363C202.295 49.7292 202.024 49.2904 201.55 48.9805C201.076 48.6706 200.493 48.5156 199.8 48.5156C199.3 48.5156 198.861 48.5977 198.484 48.7617C198.106 48.9258 197.813 49.1497 197.605 49.4336C197.396 49.7174 197.292 50.0417 197.292 50.4062C197.292 50.8125 197.419 51.1393 197.671 51.3867C197.924 51.6341 198.223 51.8268 198.57 51.9648C198.916 52.1029 199.23 52.2109 199.511 52.2891L200.675 52.6094C200.988 52.6927 201.333 52.8073 201.71 52.9531C202.088 53.099 202.449 53.293 202.792 53.5352C203.136 53.7773 203.419 54.0846 203.64 54.457C203.861 54.8294 203.972 55.2865 203.972 55.8281C203.972 56.4635 203.807 57.0365 203.476 57.5469C203.145 58.0573 202.665 58.4609 202.034 58.7578C201.404 59.0547 200.641 59.2031 199.745 59.2031ZM206.284 59V47.3594H213.378V48.6719H207.769V52.4688H212.995V53.7812H207.769V57.6875H213.449V59H206.284ZM220.659 59.1562C219.623 59.1562 218.714 58.9141 217.933 58.4297C217.152 57.9453 216.542 57.2565 216.105 56.3633C215.667 55.4701 215.449 54.4115 215.449 53.1875C215.449 51.9531 215.667 50.8893 216.105 49.9961C216.542 49.1029 217.146 48.4141 217.917 47.9297C218.688 47.4453 219.571 47.2031 220.566 47.2031C221.18 47.2031 221.755 47.2943 222.288 47.4766C222.822 47.6589 223.3 47.9193 223.722 48.2578C224.144 48.5964 224.494 48.9987 224.773 49.4648C225.051 49.931 225.243 50.4453 225.347 51.0078H223.816C223.696 50.6328 223.537 50.2969 223.339 50C223.141 49.7031 222.906 49.4479 222.632 49.2344C222.359 49.0208 222.05 48.8581 221.706 48.7461C221.363 48.6341 220.985 48.5781 220.574 48.5781C219.891 48.5781 219.271 48.7539 218.714 49.1055C218.157 49.457 217.714 49.9753 217.386 50.6602C217.058 51.3451 216.894 52.1875 216.894 53.1875C216.894 54.1771 217.059 55.013 217.39 55.6953C217.721 56.3776 218.17 56.8958 218.738 57.25C219.305 57.6042 219.946 57.7812 220.659 57.7812C221.316 57.7812 221.894 57.6419 222.394 57.3633C222.894 57.0846 223.283 56.6888 223.562 56.1758C223.84 55.6628 223.98 55.0573 223.98 54.3594L224.425 54.4453H220.964V53.1484H225.433V54.4219C225.433 55.3854 225.227 56.2214 224.816 56.9297C224.404 57.638 223.84 58.1862 223.124 58.5742C222.408 58.9622 221.587 59.1562 220.659 59.1562ZM232.394 59.1875C231.477 59.1875 230.676 59.0078 229.992 58.6484C229.307 58.2891 228.777 57.7969 228.402 57.1719C228.027 56.5469 227.839 55.8359 227.839 55.0391V47.3594H229.324V54.9219C229.324 55.4792 229.447 55.9753 229.695 56.4102C229.942 56.8451 230.295 57.1875 230.753 57.4375C231.212 57.6875 231.758 57.8125 232.394 57.8125C233.029 57.8125 233.575 57.6875 234.031 57.4375C234.486 57.1875 234.837 56.8451 235.081 56.4102C235.326 55.9753 235.449 55.4792 235.449 54.9219V47.3594H236.933V55.0391C236.933 55.8359 236.745 56.5469 236.37 57.1719C235.995 57.7969 235.468 58.2891 234.788 58.6484C234.109 59.0078 233.311 59.1875 232.394 59.1875ZM241.23 47.3594V59H239.745V47.3594H241.23ZM244.042 59V47.3594H248.027C248.933 47.3594 249.679 47.5143 250.265 47.8242C250.851 48.1341 251.286 48.5599 251.57 49.1016C251.854 49.6432 251.995 50.2604 251.995 50.9531C251.995 51.6458 251.854 52.2578 251.57 52.7891C251.286 53.3203 250.852 53.7357 250.269 54.0352C249.686 54.3346 248.941 54.4844 248.035 54.4844H244.87V53.1641H247.964C248.579 53.1641 249.072 53.0742 249.445 52.8945C249.817 52.7148 250.089 52.4596 250.261 52.1289C250.433 51.7982 250.519 51.4062 250.519 50.9531C250.519 50.4896 250.433 50.0872 250.261 49.7461C250.089 49.4049 249.816 49.1393 249.441 48.9492C249.066 48.7591 248.568 48.6641 247.949 48.6641H245.527V59H244.042ZM250.73 59L247.917 53.7578H249.589L252.449 59H250.73ZM172.206 83V71.3594H176.191C177.097 71.3594 177.843 71.5247 178.429 71.8555C179.015 72.1862 179.45 72.6302 179.734 73.1875C180.018 73.7448 180.159 74.3698 180.159 75.0625C180.159 75.7552 180.018 76.3828 179.734 76.9453C179.45 77.5078 179.016 77.9557 178.433 78.2891C177.85 78.6224 177.105 78.7891 176.199 78.7891H173.378V77.4844H176.128C176.743 77.4844 177.238 77.3789 177.613 77.168C177.988 76.957 178.26 76.668 178.429 76.3008C178.598 75.9336 178.683 75.5208 178.683 75.0625C178.683 74.6042 178.598 74.194 178.429 73.832C178.26 73.4701 177.986 73.1849 177.609 72.9766C177.231 72.7682 176.732 72.6641 176.113 72.6641H173.691V83H172.206ZM180.245 83L184.472 71.3594H186.191L190.472 83H188.909L186.441 76.0938C186.29 75.6667 186.114 75.1341 185.913 74.4961C185.713 73.8581 185.469 73.0443 185.183 72.0547H185.464C185.183 73.0547 184.939 73.8789 184.734 74.5273C184.528 75.1758 184.357 75.6979 184.222 76.0938L181.824 83H180.245ZM182.37 79.75V78.4531H188.347V79.75H182.37ZM192.284 83V71.3594H196.269C197.175 71.3594 197.921 71.5143 198.507 71.8242C199.093 72.1341 199.528 72.5599 199.812 73.1016C200.096 73.6432 200.238 74.2604 200.238 74.9531C200.238 75.6458 200.096 76.2578 199.812 76.7891C199.528 77.3203 199.094 77.7357 198.511 78.0352C197.928 78.3346 197.183 78.4844 196.277 78.4844H193.113V77.1641H196.206C196.821 77.1641 197.314 77.0742 197.687 76.8945C198.059 76.7148 198.331 76.4596 198.503 76.1289C198.675 75.7982 198.761 75.4062 198.761 74.9531C198.761 74.4896 198.675 74.0872 198.503 73.7461C198.331 73.4049 198.058 73.1393 197.683 72.9492C197.308 72.7591 196.811 72.6641 196.191 72.6641H193.769V83H192.284ZM198.972 83L196.159 77.7578H197.831L200.691 83H198.972ZM201.581 83L205.808 71.3594H207.527L211.808 83H210.245L207.777 76.0938C207.626 75.6667 207.45 75.1341 207.249 74.4961C207.049 73.8581 206.805 73.0443 206.519 72.0547H206.8C206.519 73.0547 206.275 73.8789 206.07 74.5273C205.864 75.1758 205.693 75.6979 205.558 76.0938L203.159 83H201.581ZM203.706 79.75V78.4531H209.683V79.75H203.706ZM217.917 83V81.9297L221.785 77.7344C222.217 77.2656 222.576 76.8542 222.863 76.5C223.149 76.1458 223.365 75.8086 223.511 75.4883C223.657 75.168 223.73 74.8281 223.73 74.4688C223.73 74.0625 223.633 73.7109 223.441 73.4141C223.248 73.1172 222.988 72.8893 222.66 72.7305C222.331 72.5716 221.959 72.4922 221.542 72.4922C221.1 72.4922 220.715 72.582 220.39 72.7617C220.064 72.9414 219.813 73.194 219.636 73.5195C219.459 73.8451 219.37 74.2266 219.37 74.6641H217.949C217.949 73.9766 218.107 73.3724 218.425 72.8516C218.743 72.3307 219.175 71.9258 219.722 71.6367C220.269 71.3477 220.889 71.2031 221.581 71.2031C222.274 71.2031 222.887 71.3477 223.421 71.6367C223.955 71.9258 224.374 72.3151 224.679 72.8047C224.984 73.2943 225.136 73.8438 225.136 74.4531C225.136 74.875 225.061 75.2852 224.91 75.6836C224.758 76.082 224.493 76.5339 224.113 77.0391C223.732 77.5443 223.199 78.1615 222.511 78.8906L219.964 81.6016V81.6953H225.331V83H217.917ZM229.363 77.9453C228.92 77.9453 228.52 77.8685 228.163 77.7148C227.807 77.5612 227.523 77.3359 227.312 77.0391C227.101 76.7422 226.995 76.3802 226.995 75.9531C226.995 75.4583 227.13 75.0781 227.398 74.8125C227.666 74.5469 228.006 74.3555 228.417 74.2383C228.829 74.1211 229.253 74.0391 229.691 73.9922C230.107 73.9453 230.445 73.9076 230.702 73.8789C230.96 73.8503 231.15 73.8008 231.273 73.7305C231.395 73.6602 231.456 73.5495 231.456 73.3984V73.3672C231.456 73.013 231.342 72.737 231.113 72.5391C230.883 72.3411 230.545 72.2422 230.097 72.2422C229.644 72.2422 229.283 72.332 229.015 72.5117C228.747 72.6914 228.561 72.8958 228.456 73.125L227.199 72.8203C227.365 72.4245 227.598 72.1055 227.898 71.8633C228.197 71.6211 228.536 71.4453 228.913 71.3359C229.291 71.2266 229.678 71.1719 230.074 71.1719C230.35 71.1719 230.644 71.2044 230.956 71.2695C231.269 71.3346 231.564 71.4492 231.843 71.6133C232.122 71.7773 232.35 72.0078 232.527 72.3047C232.704 72.6016 232.792 72.9844 232.792 73.4531V77.8047H231.495V76.9062H231.425C231.295 77.1667 231.061 77.4049 230.722 77.6211C230.383 77.8372 229.93 77.9453 229.363 77.9453ZM229.644 76.8984C230.029 76.8984 230.357 76.8294 230.628 76.6914C230.899 76.5534 231.106 76.3737 231.249 76.1523C231.393 75.931 231.464 75.6953 231.464 75.4453V74.6172C231.402 74.6745 231.261 74.7266 231.042 74.7734C230.824 74.8203 230.592 74.8581 230.347 74.8867C230.102 74.9154 229.904 74.9401 229.753 74.9609C229.342 75.013 228.998 75.1133 228.722 75.2617C228.446 75.4102 228.308 75.6458 228.308 75.9688C228.308 76.2708 228.434 76.5013 228.687 76.6602C228.939 76.819 229.258 76.8984 229.644 76.8984ZM184.214 107V95.3594H191.253V96.6719H185.699V100.656H190.722V101.969H185.699V107H184.214ZM191.206 107L195.433 95.3594H197.152L201.433 107H199.87L197.402 100.094C197.251 99.6667 197.075 99.1341 196.874 98.4961C196.674 97.8581 196.43 97.0443 196.144 96.0547H196.425C196.144 97.0547 195.9 97.8789 195.695 98.5273C195.489 99.1758 195.318 99.6979 195.183 100.094L192.784 107H191.206ZM193.331 103.75V102.453H199.308V103.75H193.331ZM206.972 107.203C206.133 107.203 205.406 107.068 204.788 106.797C204.171 106.526 203.688 106.147 203.339 105.66C202.99 105.173 202.792 104.604 202.745 103.953H204.269C204.311 104.391 204.459 104.751 204.714 105.035C204.969 105.319 205.296 105.53 205.695 105.668C206.093 105.806 206.519 105.875 206.972 105.875C207.498 105.875 207.971 105.789 208.39 105.617C208.809 105.445 209.141 105.203 209.386 104.891C209.631 104.578 209.753 104.216 209.753 103.805C209.753 103.43 209.648 103.125 209.437 102.891C209.226 102.656 208.946 102.464 208.597 102.312C208.248 102.161 207.865 102.029 207.449 101.914L206.042 101.516C205.105 101.25 204.376 100.87 203.855 100.375C203.334 99.8802 203.074 99.2474 203.074 98.4766C203.074 97.8203 203.251 97.2461 203.605 96.7539C203.959 96.2617 204.438 95.8802 205.042 95.6094C205.646 95.3385 206.324 95.2031 207.074 95.2031C207.839 95.2031 208.516 95.3385 209.105 95.6094C209.693 95.8802 210.158 96.2487 210.499 96.7148C210.84 97.181 211.021 97.7083 211.042 98.2969H209.589C209.521 97.7292 209.251 97.2904 208.777 96.9805C208.303 96.6706 207.719 96.5156 207.027 96.5156C206.527 96.5156 206.088 96.5977 205.71 96.7617C205.333 96.9258 205.04 97.1497 204.831 97.4336C204.623 97.7174 204.519 98.0417 204.519 98.4062C204.519 98.8125 204.645 99.1393 204.898 99.3867C205.15 99.6341 205.45 99.8268 205.796 99.9648C206.143 100.103 206.456 100.211 206.738 100.289L207.902 100.609C208.214 100.693 208.559 100.807 208.937 100.953C209.314 101.099 209.675 101.293 210.019 101.535C210.363 101.777 210.645 102.085 210.867 102.457C211.088 102.829 211.199 103.286 211.199 103.828C211.199 104.464 211.033 105.036 210.702 105.547C210.372 106.057 209.891 106.461 209.261 106.758C208.631 107.055 207.868 107.203 206.972 107.203ZM213.511 107V95.3594H220.605V96.6719H214.995V100.469H220.222V101.781H214.995V105.688H220.675V107H213.511Z" fill="white"/>
<path d="M273.115 78H260.94V76H273.115L267.515 70.4L268.94 69L276.94 77L268.94 85L267.515 83.6L273.115 78Z" fill="white"/>
</svg>
